<svg width="19" height="19" viewBox="0 0 19 19" fill="none" xmlns="http://www.w3.org/2000/svg">
<path d="M17.2929 18.7071C17.6834 19.0976 18.3166 19.0976 18.7071 18.7071C19.0976 18.3166 19.0976 17.6834 18.7071 17.2929L17.2929 18.7071ZM0.999999 1.75408e-06C0.447714 2.05351e-06 -9.0558e-07 0.447717 -1.11191e-06 1L4.47526e-07 10C1.56906e-07 10.5523 0.447716 11 1 11C1.55228 11 2 10.5523 2 10L2 2L10 2C10.5523 2 11 1.55229 11 1C11 0.447717 10.5523 1.4125e-06 10 1.79623e-06L0.999999 1.75408e-06ZM18.7071 17.2929L1.70711 0.292895L0.292893 1.70711L17.2929 18.7071L18.7071 17.2929Z" fill="white"/>
</svg>
