<svg width="131" height="31" viewBox="0 0 131 31" fill="none" xmlns="http://www.w3.org/2000/svg">
<g clip-path="url(#clip0_1_681)">
<path d="M120.566 21.1507C120.677 21.4653 120.339 21.2717 120.173 21.2173C119.52 20.947 118.901 20.6018 118.33 20.1888C117.226 19.4465 116.035 18.8371 114.784 18.3738C113.587 18.0547 112.457 17.5282 111.447 16.819C111.216 16.6819 110.969 16.5742 110.71 16.4983C110.641 16.4656 110.564 16.4527 110.488 16.4613C110.412 16.4698 110.34 16.4995 110.28 16.5467C110.258 16.5744 110.243 16.6066 110.236 16.6409C110.229 16.6751 110.23 16.7105 110.239 16.7443C110.248 16.7781 110.265 16.8095 110.288 16.8361C110.311 16.8627 110.34 16.8837 110.372 16.8976C110.987 17.2788 110.987 17.787 111.361 18.2468C111.032 18.1407 110.709 18.0134 110.397 17.8656C109.665 17.6115 108.885 17.2122 108.197 17.2606C107.279 17.3346 106.357 17.1936 105.505 16.8492C104.541 16.4826 103.484 16.4212 102.482 16.6738C102.101 16.7645 100.368 16.4076 100.227 16.1474C99.9321 15.609 99.4467 15.5787 98.8814 15.5424C98.2826 15.4971 97.6921 15.3771 97.124 15.1855C95.8944 14.8067 94.6311 14.5434 93.3511 14.399C92.9668 14.3581 92.5852 14.2955 92.2082 14.2114C90.6904 13.8242 89.1051 13.7214 87.6242 13.189C87.2548 13.0735 86.8619 13.0506 86.4813 13.1224C86.193 13.177 85.8969 13.177 85.6087 13.1224C84.4441 12.8612 83.2511 12.7434 82.057 12.7715C80.7974 12.7715 79.4762 12.5416 78.3272 12.9167C78.9416 13.074 79.7097 13.1587 79.8265 13.8182L78.5422 13.7395C78.0138 13.7032 77.5222 13.6669 77.5652 13.1345C77.5675 13.0807 77.5578 13.0271 77.5368 12.9773C77.5157 12.9276 77.4838 12.883 77.4434 12.8467C77.403 12.8104 77.355 12.7832 77.3028 12.7671C77.2506 12.7509 77.1955 12.7463 77.1412 12.7534C76.8094 12.7534 76.5882 12.9046 76.6558 13.1587C76.7726 13.5943 76.2318 13.5278 76.0782 13.3947C75.6358 13.0135 75.2486 13.2253 74.8492 13.3402C74.5456 13.4573 74.2229 13.5188 73.8968 13.5217C72.3238 13.4068 70.8244 13.8182 69.2944 13.8968C70.2284 14.2598 71.1378 14.5986 72.2193 14.2175C72.615 14.0848 73.0302 14.0173 73.4482 14.0178C75.7894 14.0178 78.1306 14.0904 80.4656 14.2538C80.6338 14.2588 80.8008 14.2832 80.9633 14.3264C82.1573 14.6973 83.3984 14.901 84.6501 14.9314C85.0711 14.9041 85.4925 14.9767 85.8791 15.1431C84.8099 15.5606 83.7653 15.2097 82.7514 15.1431C81.633 15.0645 80.5024 14.9858 79.3841 15.0161C78.2467 14.958 77.1062 15.0127 75.9799 15.1794L78.0138 15.4517C77.5531 15.5594 77.0799 15.6062 76.6066 15.5908C75.7402 15.494 74.8677 15.4638 73.9951 15.4456C73.5066 15.3692 73.0089 15.3692 72.5204 15.4456C71.6988 15.6666 70.8526 15.7865 70.001 15.8026C69.3866 15.8691 68.8397 15.7421 68.2928 15.8026C66.3449 16.099 64.3048 15.9659 62.4 16.4983C62.2023 16.5638 61.9936 16.5905 61.7855 16.577C60.7778 16.4681 59.8192 16.8371 58.8237 16.8432C58.4489 16.8432 57.7422 16.8432 58.283 17.3937C58.3997 17.5026 58.2031 17.5813 58.0556 17.6478C57.6398 17.8273 57.1882 17.9121 56.7345 17.8959C56.12 17.8959 56.0463 17.7386 56.3781 17.2001C55.8742 17.2546 55.0939 17.1396 55.1061 17.5692C55.1061 18.1742 54.7252 18.1742 54.1537 18.271C53.616 18.4391 53.0332 18.3979 52.5253 18.156C51.8371 17.672 51.5545 17.666 50.6819 17.9261C49.8094 18.1863 49.1027 18.5311 48.1441 18.3617C47.7632 18.2831 47.1057 18.3617 46.952 18.8639C46.866 19.1482 46.5588 19.2571 46.2147 19.3176L44.3713 19.6201C44.783 19.1966 44.869 18.9123 44.107 19.0151C43.5694 19.028 43.0353 19.1032 42.5156 19.239C41.8779 19.4382 41.2271 19.5939 40.5677 19.7048C38.4907 20.0859 36.4077 20.455 34.5335 20.8664C35.8055 20.3945 37.3908 20.2614 38.798 19.5777C37.6059 20.1101 36.3831 19.9347 35.191 20.1827C36.1926 19.9044 37.2249 19.6987 38.2634 19.4688C38.7304 19.3781 39.056 19.245 38.5153 18.9728C38.4477 18.9365 38.4785 18.8155 38.4477 18.6763C39.9137 18.5724 41.3586 18.2732 42.7429 17.787C42.5383 17.6132 42.2833 17.5074 42.0141 17.4846C41.7449 17.4618 41.4753 17.5231 41.2436 17.6599C40.3895 18.0834 39.2711 17.908 38.4416 18.4767C38.3482 18.5298 38.2422 18.5577 38.1343 18.5577C38.0265 18.5577 37.9205 18.5298 37.8271 18.4767C37.7084 18.4457 37.5843 18.4405 37.4633 18.4614C37.3424 18.4822 37.2275 18.5287 37.1266 18.5977C36.254 19.0332 35.3201 18.8881 34.4229 19.0272C34.3544 19.0469 34.2809 19.0405 34.2171 19.009C34.1532 18.9776 34.1039 18.9236 34.0788 18.8578C34.0788 18.7247 34.2201 18.64 34.3922 18.5977L37.4645 17.8777C38.331 17.672 39.2711 17.6176 40.0146 17.1094C38.6321 17.1759 37.3601 17.9019 35.8976 17.9201C36.2295 17.424 37.0529 16.9339 35.7932 16.8795C35.9161 16.7101 36.082 16.4378 35.7072 16.4923C34.8162 16.6254 34.0112 16.2745 33.0895 16.6738C32.7946 16.8176 32.4594 16.8602 32.1371 16.7948C32.1371 16.3955 32.9482 16.577 33.0158 16.099C31.1723 16.5104 29.3658 16.6617 27.5408 17.0307C28.3826 16.462 29.759 16.4983 30.2445 15.494C29.6571 15.485 29.0721 15.5687 28.5117 15.7421C26.5515 16.4862 24.5114 16.9521 22.5144 17.5571C21.5988 17.8051 20.6709 18.2952 19.7677 18.3375C18.8761 18.4875 18.0137 18.7733 17.2115 19.1845C16.8113 19.3789 16.4011 19.5526 15.9825 19.7048C13.9486 20.1767 12.4247 21.6347 10.569 22.4454C10.5314 22.4679 10.4964 22.4943 10.4645 22.5241C9.47519 23.2319 8.47976 23.9458 7.56419 24.7384C6.18162 25.9484 4.62701 26.9405 3.3489 28.2594C2.3695 29.3529 1.21806 30.2844 -0.0614319 31.0182C1.11836 29.9837 1.94174 28.9794 2.94947 28.1384C4.22634 26.8745 5.60752 25.717 7.07877 24.6779C7.14944 24.6384 7.20826 24.5812 7.24926 24.5122C7.29027 24.4431 7.31201 24.3646 7.31227 24.2846C7.31227 24.1334 7.14636 24.1394 6.96202 24.2302C6.77767 24.3209 6.43971 24.5206 6.34754 24.3088C6.25537 24.0971 6.55646 23.8672 6.8084 23.7038C7.73011 23.0504 8.69482 22.4938 9.63497 21.8888C12.5967 20.0738 15.7797 18.6763 18.9135 17.1941C20.757 16.3471 22.5635 15.5243 24.4438 14.8285C25.1847 14.6139 25.8729 14.2515 26.4655 13.7637C24.8985 14.1086 23.559 14.7438 22.1641 14.8406C22.7049 14.6349 23.1104 14.2901 23.6081 14.0904C24.1484 13.8738 24.7216 13.747 25.3041 13.7153C25.5376 13.7153 25.7465 13.5278 25.7526 13.3644C25.7526 12.7594 26.4654 12.5416 27.1045 12.3178C27.6145 12.1363 28.1553 12.0092 28.6776 11.8701C29.335 11.6946 29.9741 11.5313 30.2629 10.9747C30.4227 10.6722 30.8774 10.6057 31.3014 10.4907C32.0948 10.3283 32.8706 10.0913 33.618 9.78286C34.2816 9.43196 35.0251 9.12341 35.8055 8.68782L35.0988 8.77252C34.214 8.85117 34.2201 8.81487 34.3615 8.20987C34.4352 7.89527 34.8223 7.85292 35.0558 7.68958C35.2893 7.52623 35.3446 7.50808 35.277 7.38708C35.2094 7.26608 35.0251 7.31448 34.8408 7.33263C32.5541 7.61697 30.3047 8.14021 28.1307 8.89352C26.0476 9.49851 24.0014 10.3213 21.7954 11.1986C23.0244 10.2064 24.7203 9.98856 25.6482 8.99637C25.8328 8.87287 26.0425 8.79031 26.2627 8.75437C28.315 8.20382 30.2506 7.44758 32.2292 6.83048C34.232 6.31526 36.2018 5.68293 38.1282 4.93684C39.4555 4.3621 41.0531 4.21085 42.5094 3.7934C43.2406 3.5756 44.064 3.56955 44.7338 3.1884C45.0364 3.08021 45.3609 3.04494 45.6801 3.08556C46.7862 3.01296 47.9844 3.0432 48.9675 2.62576C50.301 2.02076 51.9539 2.62576 53.1521 1.76666C53.2824 1.74588 53.4152 1.74588 53.5454 1.76666C54.1896 1.82752 54.8394 1.79696 55.4748 1.67591C57.5763 1.35527 59.7762 1.58516 61.8347 0.955969C62.0067 0.901519 62.2832 1.01042 62.5167 1.00437C63.8624 1.00437 65.1528 1.31292 66.5784 1.06487C67.2197 0.961263 67.8755 0.983883 68.5079 1.13142C69.1021 1.25246 69.7127 1.27495 70.3144 1.19797C71.9923 1.09613 73.6761 1.13661 75.347 1.31897C77.6021 1.46416 79.8695 1.79691 82.1062 2.10546C84.6194 2.45031 87.1449 2.83146 89.6581 3.31545C89.6212 3.5756 89.3017 3.50905 88.9453 3.47275C88.1588 3.40015 87.5013 3.03716 86.7271 2.95851C83.8575 2.68626 81.037 2.20831 78.1797 2.02076C77.52 1.96552 76.856 1.98582 76.2011 2.08126C76.9546 2.34115 77.7503 2.46215 78.5484 2.43821C79.3074 2.4139 80.0658 2.50366 80.7974 2.70441C81.623 2.90661 82.4632 3.04617 83.3106 3.12185C85.3928 3.34692 87.4592 3.69645 89.4984 4.1685C91.8026 4.713 93.941 5.63864 96.2944 6.11054C96.3498 6.11054 96.3989 6.20734 96.4603 6.27388C96.2821 6.33438 96.0917 6.38278 95.9257 6.45538C95.6615 6.57638 95.0839 6.45538 95.2007 6.88493C95.3174 7.31448 95.7783 7.41128 96.2084 7.48993C98.8629 8.14332 101.173 9.48641 103.748 10.3334C103.963 10.406 104.129 10.5391 103.982 10.7085L99.4283 9.31701C98.3567 8.88936 97.2255 8.62418 96.0732 8.53052C95.7058 8.4997 95.3515 8.38135 95.0409 8.18567C94.8111 8.03825 94.5508 7.94318 94.279 7.90737C93.0908 7.74783 91.9146 7.51137 90.758 7.19953C90.5928 7.13294 90.4136 7.10696 90.2358 7.12383C90.0581 7.14069 89.8872 7.19989 89.738 7.29633C89.9715 7.62908 90.3525 7.63512 90.7212 7.71377C92.4294 8.10097 94.1376 8.48212 95.8028 9.00242C96.7455 9.30075 97.6707 9.65016 98.5741 10.0491C99.7355 10.5391 101.001 10.9747 102.261 11.4164C103.004 11.649 103.732 11.9237 104.442 12.2391C107.386 13.5641 110.372 14.8043 113.26 16.2503C113.942 16.6072 114.624 17.1033 115.448 17.1033C115.574 17.1444 115.695 17.2035 115.804 17.2788L119.835 19.5172C120.438 19.809 120.995 20.1861 121.488 20.6365C121.058 20.8119 120.314 20.461 120.566 21.1507ZM43.6216 16.4378C43.2714 16.1777 42.9703 16.3592 42.5954 16.6193C42.7646 16.6972 42.954 16.7216 43.1378 16.6891C43.3216 16.6565 43.4906 16.5688 43.6216 16.4378ZM39.8118 6.08029C40.6967 6.37068 41.4832 5.95929 42.2697 5.77174C41.8596 5.66147 41.4314 5.63196 41.0096 5.68491C40.5878 5.73785 40.1808 5.87221 39.8118 6.08029ZM44.1132 17.3695C43.9411 17.6599 44.5802 17.7325 44.3528 18.0653C44.2729 18.1863 44.5556 18.271 44.783 18.2165C45.0103 18.1621 45.2868 17.9987 45.2131 17.9261C44.7461 17.4845 45.3974 17.5087 45.6985 17.3211C45.9996 17.1336 46.4298 17.1094 46.4359 16.7766C45.6571 16.9229 44.8893 17.121 44.1378 17.3695H44.1132ZM46.7124 15.851C46.6359 15.8382 46.5572 15.8487 46.487 15.8811C46.4167 15.9136 46.3581 15.9664 46.3192 16.0325C46.2516 16.1656 46.3622 16.2382 46.5711 16.214C46.78 16.1898 46.8783 16.1353 46.9152 16.0204C46.952 15.9054 46.8476 15.8691 46.737 15.851H46.7124ZM48.3654 16.4015C47.8799 16.2805 47.376 16.1172 46.9643 16.6072C46.9016 16.6814 46.8208 16.7386 46.7294 16.7736C46.638 16.8085 46.5392 16.82 46.4421 16.8069C47.0314 17.0403 47.6871 17.0533 48.2855 16.8432C48.3851 16.8071 48.4724 16.7442 48.5374 16.6617C48.6726 16.5225 48.5374 16.4378 48.3899 16.4015H48.3654ZM54.7313 15.6937C55.5301 15.5666 56.2614 15.9296 56.8328 15.3307C56.4929 15.1637 56.1074 15.1088 55.7334 15.1742C55.3594 15.2396 55.0167 15.4217 54.7559 15.6937H54.7313ZM62.3017 14.6349C64.3171 14.6349 67.6722 14.4232 68.5079 14.1388C66.4339 14.0214 64.3535 14.1883 62.3262 14.6349H62.3017ZM72.9566 12.6687C72.7846 12.6687 72.6187 12.6687 72.6125 12.8139C72.6064 12.9591 72.7232 12.9591 72.8522 12.9651C72.9812 12.9712 73.1902 12.9651 73.1963 12.826C73.2024 12.6868 73.1164 12.6808 72.9813 12.6687H72.9566Z" fill="#ED5C01"/>
<path d="M97.8618 17.7202C95.533 17.1153 93.1488 16.8007 90.8076 16.232V16.0142C93.1979 16.3953 95.5575 16.9217 97.9048 17.4964L97.8618 17.7202Z" fill="#ED5C01"/>
<path d="M119.043 21.2897C119.172 21.3986 119.362 21.4954 119.307 21.6345C119.252 21.7737 118.944 21.7737 118.803 21.6769C117.845 21.0235 116.671 20.6302 115.768 19.5957C116.984 19.8859 118.109 20.4679 119.043 21.2897Z" fill="#ED5C01"/>
<path d="M85.707 13.9876C87.1633 13.7032 88.2387 14.5502 89.6397 14.7075C87.8392 14.9193 86.7332 14.7015 85.707 13.9876Z" fill="#ED5C01"/>
<path d="M34.7544 17.1334C33.7774 17.811 33.7897 17.805 32.6406 17.2242C33.4825 16.8612 34.226 16.5768 34.7544 17.1334Z" fill="#ED5C01"/>
<path d="M84.2381 1.78462C83.4662 1.67036 82.7162 1.44191 82.0137 1.10703C82.8056 1.00504 83.6106 1.07315 84.3733 1.30667C84.6314 1.37927 84.7911 1.48212 84.6867 1.65152C84.6325 1.71341 84.5615 1.75881 84.4821 1.78238C84.4026 1.80596 84.318 1.80673 84.2381 1.78462Z" fill="#ED5C01"/>
<path d="M48.7156 18.8576C49.287 18.4402 49.9446 18.6459 50.8171 18.5249C50.2026 19.1299 49.4898 19.0573 48.9737 19.3235C48.8854 19.3613 48.7876 19.3717 48.6932 19.3533C48.5987 19.335 48.5123 19.2887 48.4453 19.2206C48.3285 19.0573 48.5804 18.9605 48.7156 18.8576Z" fill="#ED5C01"/>
<path d="M125.322 23.613C126.187 24.0951 126.876 24.8341 127.289 25.7245C126.269 25.2768 125.875 24.5024 125.322 23.613Z" fill="#ED5C01"/>
<path d="M74.4191 16.1109C74.8984 15.9839 75.4146 16.2319 75.8631 16.0383C75.8017 16.3106 75.4822 16.2682 75.2118 16.2985C75.1135 16.2985 74.9291 16.244 74.9353 16.359C74.9414 16.4739 75.4207 16.359 75.1626 16.5889C74.9837 16.6693 74.7874 16.7046 74.5912 16.6917H73.3622C73.9583 16.7038 73.9767 16.2198 74.4191 16.1109Z" fill="#ED5C01"/>
<path d="M121.961 21.0659C122.576 21.5862 123.503 21.8706 123.731 22.6813C122.625 22.4695 122.582 21.5802 121.961 21.0659Z" fill="#ED5C01"/>
<path d="M94.537 3.80542C95.4956 4.07767 96.5402 4.18657 97.3759 4.76131C96.3251 4.65242 95.5325 4.05347 94.537 3.80542Z" fill="#ED5C01"/>
<path d="M34.2451 22.0945L36.0148 21.6831C35.4507 21.9116 34.8534 22.0504 34.2451 22.0945Z" fill="#ED5C01"/>
<path d="M36.8196 21.5076L36.1621 21.6467L36.0146 21.683C36.276 21.5968 36.5458 21.538 36.8196 21.5076Z" fill="#ED5C01"/>
<path d="M60.5631 17.0184C60.9748 17.0184 61.4602 16.8974 61.8351 17.2604L60.6553 17.5084C60.4771 17.5447 60.348 17.5084 60.3173 17.3511C60.2866 17.1938 60.2927 17.0244 60.5631 17.0184Z" fill="#ED5C01"/>
<path d="M54.0557 0.998287C54.7646 0.73441 55.5254 0.633027 56.2801 0.701838C55.5952 1.04918 54.8097 1.15386 54.0557 0.998287Z" fill="#ED5C01"/>
<path d="M25.869 17.6477C25.1329 18.0946 24.2742 18.3059 23.4111 18.2527C24.1805 17.8897 25.0166 17.6839 25.869 17.6477Z" fill="#ED5C01"/>
<path d="M82.0693 13.7757C82.3818 13.632 82.7313 13.5851 83.0715 13.6413C83.4117 13.6974 83.7265 13.854 83.9742 14.0903C83.2983 13.9451 82.6347 14.1206 82.0693 13.7757Z" fill="#ED5C01"/>
<path d="M88.6258 16.3471C88.0042 16.4606 87.3623 16.389 86.7823 16.1414C87.3907 16.2684 88.0113 16.0022 88.6258 16.3471Z" fill="#ED5C01"/>
<path d="M75.8631 16.0448V16.0383L75.8821 16.0448H75.8631Z" fill="#ED5C01"/>
<path d="M78.6654 16.3653C77.7267 16.384 76.7898 16.274 75.8818 16.0386C76.8035 16.1898 77.7683 15.9115 78.6654 16.3653Z" fill="#ED5C01"/>
<path d="M47.8246 2.00863L46.5957 2.18408C46.8743 1.89584 47.2266 1.68685 47.6157 1.57908C47.7098 1.54338 47.8137 1.5414 47.9092 1.57347C48.0047 1.60554 48.0857 1.66963 48.138 1.75453C48.1933 1.87553 47.9967 1.97838 47.8246 2.00863Z" fill="#ED5C01"/>
<path d="M75.3101 0.405349C74.6956 0.290399 73.9214 0.459797 73.1349 0C74.0443 0.0604996 74.7386 0.0121011 75.3101 0.405349Z" fill="#ED5C01"/>
<path d="M78.2411 0.46582C78.8925 0.49607 79.3349 0.375072 79.6483 0.70782C79.722 0.786469 79.7343 0.913519 79.5869 0.925619C79.3424 0.945702 79.0963 0.915166 78.8646 0.835976C78.6328 0.756786 78.4204 0.630695 78.2411 0.46582Z" fill="#ED5C01"/>
<path d="M88.0793 2.4926C87.5324 2.54705 87.4648 2.2385 87.0654 1.96021C87.6799 1.96021 88.1223 1.96021 88.3435 2.25665C88.4234 2.3716 88.2145 2.4805 88.0793 2.4926Z" fill="#ED5C01"/>
<path d="M12.9834 14.1569C13.3302 13.7756 13.8163 13.545 14.3353 13.5156C13.9675 13.8685 13.4929 14.0937 12.9834 14.1569Z" fill="#ED5C01"/>
<path d="M71.5061 16.2382C71.629 16.2745 71.6659 16.3289 71.6167 16.4318C71.5643 16.5637 71.4622 16.6706 71.3318 16.7304C71.2013 16.7901 71.0525 16.798 70.9162 16.7524L70.5537 16.6798C70.7196 16.6012 70.8179 16.577 70.8363 16.5346C70.8595 16.4711 70.8954 16.4129 70.942 16.3633C70.9885 16.3138 71.0448 16.274 71.1073 16.2463C71.1698 16.2186 71.2373 16.2036 71.3059 16.2023C71.3744 16.2009 71.4425 16.2131 71.5061 16.2382Z" fill="#ED5C01"/>
<path d="M54.4176 21.3081C53.9941 21.4119 53.5561 21.4466 53.1211 21.4109C53.5328 21.3807 53.883 21.06 54.4176 21.3081Z" fill="#ED5C01"/>
<path d="M66.3203 18.6581L67.4202 18.5916C67.2548 18.6862 67.0692 18.7415 66.8783 18.753C66.6873 18.7646 66.4963 18.7321 66.3203 18.6581Z" fill="#ED5C01"/>
<path d="M42.4292 20.3703C41.9253 20.5639 41.5198 20.5941 41.1572 20.7272C41.5218 20.4574 41.975 20.3302 42.4292 20.3703Z" fill="#ED5C01"/>
<path d="M130.066 27.249C130.398 27.5031 130.853 27.6423 131 28.09C130.552 27.9085 130.355 27.5273 130.066 27.249Z" fill="#ED5C01"/>
<path d="M63.5613 20.0496C63.3576 20.1595 63.1337 20.2284 62.9027 20.2523C62.6717 20.2762 62.4381 20.2546 62.2156 20.1887C62.6383 20.0047 63.109 19.956 63.5613 20.0496Z" fill="#ED5C01"/>
<path d="M20.204 11.852C20.0735 11.8913 19.9399 11.9196 19.8045 11.9367C19.8353 11.8883 19.8414 11.8459 19.8722 11.8399C20.1198 11.7227 20.3766 11.6256 20.6402 11.5495C20.8 11.5132 20.7754 11.4406 20.7447 11.5495C20.714 11.6584 20.4067 11.7733 20.204 11.852Z" fill="#ED5C01"/>
<path d="M86.0261 2.00857C85.9514 2.00299 85.8812 1.97124 85.8282 1.91908C85.7752 1.86691 85.743 1.79778 85.7373 1.72422C85.7373 1.62137 85.8479 1.57902 86.0138 1.59112C86.1797 1.60322 86.4071 1.71212 86.4009 1.83917C86.3948 1.96622 86.2105 2.05697 86.0261 2.00857Z" fill="#ED5C01"/>
<path d="M92.4421 3.32152C92.2148 3.36992 92.1226 3.24287 91.9936 3.17027C91.8645 3.09767 91.9567 3.04322 92.0919 3.07347C92.303 3.09804 92.5098 3.15096 92.7063 3.23077C92.8046 3.26707 92.5589 3.29732 92.4421 3.32152Z" fill="#ED5C01"/>
<path d="M26.803 11.3982C26.6173 11.5043 26.4013 11.5468 26.1885 11.5192C26.3608 11.3767 26.578 11.2976 26.803 11.2953C26.9136 11.2893 26.9197 11.3558 26.803 11.3982Z" fill="#ED5C01"/>
<path d="M77.3744 18.3254C77.2727 18.3732 77.1615 18.398 77.0488 18.398C76.9361 18.398 76.8248 18.3732 76.7231 18.3254C76.6371 18.283 76.6432 18.2407 76.7538 18.2225C76.856 18.1772 76.9695 18.1627 77.08 18.1811C77.1905 18.1994 77.293 18.2496 77.3744 18.3254Z" fill="#ED5C01"/>
<path d="M56.3599 20.9632L55.6533 21.0297C55.7496 20.948 55.8693 20.8977 55.9959 20.8858C56.1225 20.8739 56.2496 20.9009 56.3599 20.9632Z" fill="#ED5C01"/>
<path d="M46.3929 22.6872C46.3929 22.7175 46.27 22.7477 46.1901 22.778C46.1102 22.8082 45.8951 22.778 45.8829 22.6147C45.9475 22.5782 46.0183 22.5536 46.0918 22.5421C46.2516 22.5239 46.4298 22.5299 46.3929 22.6872Z" fill="#ED5C01"/>
<path d="M59.641 19.4628C59.5198 19.5386 59.3791 19.579 59.2354 19.579C59.0918 19.579 58.9511 19.5386 58.8299 19.4628C59.0879 19.4144 59.3645 19.251 59.641 19.4628Z" fill="#ED5C01"/>
<path d="M20.6648 10.8838C20.7161 10.8169 20.781 10.7613 20.8553 10.7204C21.0335 10.6418 21.3776 10.4482 21.353 10.6478C21.3284 10.8475 20.9413 10.9019 20.6648 10.8838Z" fill="#ED5C01"/>
<path d="M98.611 5.16656C98.6417 5.06976 98.8138 5.16656 98.9428 5.16656C99.0719 5.16656 99.2316 5.25731 99.1025 5.35411C99.0314 5.38115 98.9525 5.38115 98.8813 5.35411C98.7707 5.31781 98.5987 5.20891 98.611 5.16656Z" fill="#ED5C01"/>
</g>
<defs>
<clipPath id="clip0_1_681">
<rect width="131" height="31" fill="white"/>
</clipPath>
</defs>
</svg>
