<svg width="122" height="31" viewBox="0 0 122 31" fill="none" xmlns="http://www.w3.org/2000/svg">
<path d="M120.566 21.1506C120.677 21.4652 120.339 21.2716 120.173 21.2172C119.52 20.9469 118.901 20.6017 118.33 20.1887C117.226 19.4463 116.035 18.837 114.784 18.3737C113.587 18.0545 112.457 17.528 111.447 16.8188C111.216 16.6818 110.969 16.5741 110.71 16.4982C110.641 16.4654 110.564 16.4526 110.488 16.4612C110.412 16.4697 110.34 16.4993 110.28 16.5466C110.258 16.5743 110.243 16.6065 110.236 16.6407C110.229 16.675 110.23 16.7104 110.239 16.7442C110.248 16.778 110.265 16.8094 110.288 16.836C110.311 16.8625 110.34 16.8836 110.372 16.8975C110.987 17.2786 110.987 17.7868 111.361 18.2466C111.032 18.1406 110.709 18.0133 110.397 17.8655C109.665 17.6114 108.885 17.2121 108.197 17.2605C107.279 17.3344 106.357 17.1935 105.505 16.8491C104.541 16.4824 103.484 16.4211 102.482 16.6736C102.101 16.7644 100.368 16.4074 100.227 16.1473C99.9321 15.6089 99.4467 15.5786 98.8814 15.5423C98.2826 15.4969 97.6921 15.377 97.124 15.1854C95.8944 14.8066 94.6311 14.5432 93.3511 14.3989C92.9668 14.358 92.5852 14.2954 92.2082 14.2113C90.6904 13.8241 89.1051 13.7213 87.6242 13.1889C87.2548 13.0734 86.8619 13.0505 86.4813 13.1223C86.193 13.1769 85.8969 13.1769 85.6087 13.1223C84.4441 12.8611 83.2511 12.7433 82.057 12.7714C80.7974 12.7714 79.4762 12.5415 78.3272 12.9166C78.9416 13.0739 79.7097 13.1586 79.8265 13.8181L78.5422 13.7394C78.0138 13.7031 77.5222 13.6668 77.5652 13.1344C77.5675 13.0806 77.5578 13.0269 77.5368 12.9772C77.5157 12.9275 77.4838 12.8829 77.4434 12.8466C77.403 12.8102 77.355 12.7831 77.3028 12.7669C77.2506 12.7508 77.1955 12.7462 77.1412 12.7533C76.8094 12.7533 76.5882 12.9045 76.6558 13.1586C76.7726 13.5942 76.2318 13.5277 76.0782 13.3946C75.6358 13.0134 75.2486 13.2252 74.8492 13.3401C74.5456 13.4572 74.2229 13.5187 73.8968 13.5216C72.3238 13.4067 70.8244 13.8181 69.2944 13.8967C70.2284 14.2597 71.1378 14.5985 72.2193 14.2174C72.615 14.0847 73.0302 14.0172 73.4482 14.0177C75.7894 14.0177 78.1306 14.0903 80.4656 14.2537C80.6338 14.2587 80.8008 14.2831 80.9633 14.3263C82.1573 14.6972 83.3984 14.9009 84.6501 14.9313C85.0711 14.904 85.4925 14.9766 85.8791 15.143C84.8099 15.5605 83.7653 15.2096 82.7514 15.143C81.633 15.0644 80.5024 14.9857 79.3841 15.016C78.2467 14.9578 77.1062 15.0126 75.9799 15.1793L78.0138 15.4516C77.5531 15.5593 77.0799 15.6061 76.6066 15.5907C75.7402 15.4939 74.8677 15.4637 73.9951 15.4455C73.5066 15.3691 73.0089 15.3691 72.5204 15.4455C71.6988 15.6665 70.8526 15.7864 70.001 15.8025C69.3866 15.869 68.8397 15.742 68.2928 15.8025C66.3449 16.0989 64.3048 15.9658 62.4 16.4982C62.2023 16.5636 61.9936 16.5904 61.7855 16.5768C60.7778 16.4679 59.8192 16.837 58.8237 16.843C58.4489 16.843 57.7422 16.843 58.283 17.3936C58.3997 17.5025 58.2031 17.5811 58.0556 17.6477C57.6398 17.8272 57.1882 17.912 56.7345 17.8957C56.12 17.8957 56.0463 17.7384 56.3781 17.2C55.8742 17.2544 55.0939 17.1395 55.1061 17.569C55.1061 18.174 54.7252 18.174 54.1537 18.2708C53.616 18.439 53.0332 18.3978 52.5253 18.1559C51.8371 17.6719 51.5545 17.6658 50.6819 17.926C49.8094 18.1861 49.1027 18.531 48.1441 18.3616C47.7632 18.2829 47.1057 18.3616 46.952 18.8637C46.866 19.1481 46.5588 19.257 46.2147 19.3175L44.3713 19.62C44.783 19.1965 44.869 18.9121 44.107 19.015C43.5694 19.0279 43.0353 19.103 42.5156 19.2388C41.8779 19.4381 41.2271 19.5937 40.5677 19.7047C38.4907 20.0858 36.4077 20.4549 34.5335 20.8663C35.8055 20.3944 37.3908 20.2613 38.798 19.5776C37.6059 20.11 36.3831 19.9346 35.191 20.1826C36.1926 19.9043 37.2249 19.6986 38.2634 19.4687C38.7304 19.378 39.056 19.2449 38.5153 18.9726C38.4477 18.9363 38.4785 18.8153 38.4477 18.6762C39.9137 18.5722 41.3586 18.2731 42.7429 17.7868C42.5383 17.6131 42.2833 17.5073 42.0141 17.4844C41.7449 17.4616 41.4753 17.523 41.2436 17.6598C40.3895 18.0833 39.2711 17.9078 38.4416 18.4765C38.3482 18.5296 38.2422 18.5576 38.1343 18.5576C38.0265 18.5576 37.9205 18.5296 37.8271 18.4765C37.7084 18.4456 37.5843 18.4403 37.4633 18.4612C37.3424 18.4821 37.2275 18.5286 37.1266 18.5975C36.254 19.0331 35.3201 18.8879 34.4229 19.0271C34.3544 19.0468 34.2809 19.0403 34.2171 19.0089C34.1532 18.9775 34.1039 18.9235 34.0788 18.8577C34.0788 18.7246 34.2201 18.6399 34.3922 18.5975L37.4645 17.8776C38.331 17.6719 39.2711 17.6174 40.0146 17.1092C38.6321 17.1758 37.3601 17.9018 35.8976 17.9199C36.2295 17.4238 37.0529 16.9338 35.7932 16.8793C35.9161 16.7099 36.082 16.4377 35.7072 16.4921C34.8162 16.6252 34.0112 16.2743 33.0895 16.6736C32.7946 16.8175 32.4594 16.8601 32.1371 16.7946C32.1371 16.3953 32.9482 16.5768 33.0158 16.0989C31.1723 16.5103 29.3658 16.6615 27.5408 17.0306C28.3826 16.4619 29.759 16.4982 30.2445 15.4939C29.6571 15.4848 29.0721 15.5686 28.5117 15.7419C26.5515 16.4861 24.5114 16.9519 22.5144 17.5569C21.5988 17.805 20.6709 18.295 19.7677 18.3374C18.8761 18.4874 18.0137 18.7731 17.2115 19.1844C16.8113 19.3788 16.4011 19.5525 15.9825 19.7047C13.9486 20.1766 12.4247 21.6346 10.569 22.4453C10.5314 22.4678 10.4964 22.4941 10.4645 22.524C9.47519 23.2318 8.47976 23.9457 7.56419 24.7382C6.18162 25.9482 4.62701 26.9404 3.3489 28.2593C2.3695 29.3528 1.21806 30.2843 -0.0614319 31.0181C1.11836 29.9836 1.94174 28.9793 2.94947 28.1383C4.22634 26.8744 5.60752 25.7169 7.07877 24.6777C7.14944 24.6383 7.20826 24.5811 7.24926 24.5121C7.29027 24.443 7.31201 24.3645 7.31227 24.2845C7.31227 24.1332 7.14636 24.1393 6.96202 24.23C6.77767 24.3208 6.43971 24.5204 6.34754 24.3087C6.25537 24.0969 6.55646 23.867 6.8084 23.7037C7.73011 23.0503 8.69482 22.4937 9.63497 21.8887C12.5967 20.0737 15.7797 18.6762 18.9135 17.1939C20.757 16.3469 22.5635 15.5242 24.4438 14.8284C25.1847 14.6138 25.8729 14.2513 26.4655 13.7636C24.8985 14.1085 23.559 14.7437 22.1641 14.8405C22.7049 14.6348 23.1104 14.29 23.6081 14.0903C24.1484 13.8736 24.7216 13.7469 25.3041 13.7152C25.5376 13.7152 25.7465 13.5277 25.7526 13.3643C25.7526 12.7593 26.4654 12.5415 27.1045 12.3177C27.6145 12.1362 28.1553 12.0091 28.6776 11.87C29.335 11.6945 29.9741 11.5312 30.2629 10.9746C30.4227 10.6721 30.8774 10.6055 31.3014 10.4906C32.0948 10.3282 32.8706 10.0912 33.618 9.78274C34.2816 9.43184 35.0251 9.12329 35.8055 8.6877L35.0988 8.7724C34.214 8.85104 34.2201 8.81474 34.3615 8.20975C34.4352 7.89515 34.8223 7.8528 35.0558 7.68945C35.2893 7.5261 35.3446 7.50796 35.277 7.38696C35.2094 7.26596 35.0251 7.31436 34.8408 7.33251C32.5541 7.61685 30.3047 8.14009 28.1307 8.89339C26.0476 9.49839 24.0014 10.3212 21.7954 11.1984C23.0244 10.2062 24.7203 9.98844 25.6482 8.99625C25.8328 8.87275 26.0425 8.79018 26.2627 8.75425C28.315 8.2037 30.2506 7.44745 32.2292 6.83036C34.232 6.31514 36.2018 5.6828 38.1282 4.93672C39.4555 4.36197 41.0531 4.21072 42.5094 3.79328C43.2406 3.57548 44.064 3.56943 44.7338 3.18828C45.0364 3.08009 45.3609 3.04482 45.6801 3.08543C46.7862 3.01283 47.9844 3.04308 48.9675 2.62563C50.301 2.02064 51.9539 2.62564 53.1521 1.76654C53.2824 1.74576 53.4152 1.74576 53.5454 1.76654C54.1896 1.8274 54.8394 1.79683 55.4748 1.67579C57.5763 1.35514 59.7762 1.58504 61.8347 0.955847C62.0067 0.901397 62.2832 1.0103 62.5167 1.00425C63.8624 1.00425 65.1528 1.31279 66.5784 1.06475C67.2197 0.961141 67.8755 0.983761 68.5079 1.1313C69.1021 1.25234 69.7127 1.27483 70.3144 1.19785C71.9923 1.09601 73.6761 1.13649 75.347 1.31884C77.6021 1.46404 79.8695 1.79679 82.1062 2.10534C84.6194 2.45019 87.1449 2.83134 89.6581 3.31533C89.6212 3.57548 89.3017 3.50893 88.9453 3.47263C88.1588 3.40003 87.5013 3.03703 86.7271 2.95838C83.8575 2.68614 81.037 2.20819 78.1797 2.02064C77.52 1.9654 76.856 1.9857 76.2011 2.08114C76.9546 2.34103 77.7503 2.46203 78.5484 2.43809C79.3074 2.41378 80.0658 2.50354 80.7974 2.70428C81.623 2.90649 82.4632 3.04605 83.3106 3.12173C85.3928 3.3468 87.4592 3.69633 89.4984 4.16838C91.8026 4.71287 93.941 5.63852 96.2944 6.11041C96.3498 6.11041 96.3989 6.20721 96.4603 6.27376C96.2821 6.33426 96.0917 6.38266 95.9257 6.45526C95.6615 6.57626 95.0839 6.45526 95.2007 6.88481C95.3174 7.31435 95.7783 7.41115 96.2084 7.4898C98.8629 8.1432 101.173 9.48629 103.748 10.3333C103.963 10.4059 104.129 10.539 103.982 10.7084L99.4283 9.31689C98.3567 8.88924 97.2255 8.62406 96.0732 8.5304C95.7058 8.49957 95.3515 8.38122 95.0409 8.18555C94.8111 8.03813 94.5508 7.94305 94.279 7.90725C93.0908 7.74771 91.9146 7.51125 90.758 7.19941C90.5928 7.13282 90.4136 7.10684 90.2358 7.1237C90.0581 7.14057 89.8872 7.19977 89.738 7.29621C89.9715 7.62895 90.3525 7.635 90.7212 7.71365C92.4294 8.10085 94.1376 8.482 95.8028 9.00229C96.7455 9.30063 97.6707 9.65004 98.5741 10.0489C99.7355 10.539 101.001 10.9746 102.261 11.4162C103.004 11.6489 103.732 11.9236 104.442 12.239C107.386 13.564 110.372 14.8042 113.26 16.2501C113.942 16.6071 114.624 17.1032 115.448 17.1032C115.574 17.1443 115.695 17.2034 115.804 17.2786L119.835 19.5171C120.438 19.8089 120.995 20.1859 121.488 20.6364C121.058 20.8118 120.314 20.4609 120.566 21.1506ZM43.6216 16.4377C43.2714 16.1775 42.9703 16.359 42.5954 16.6192C42.7646 16.6971 42.954 16.7214 43.1378 16.6889C43.3216 16.6564 43.4906 16.5687 43.6216 16.4377ZM39.8118 6.08016C40.6967 6.37056 41.4832 5.95916 42.2697 5.77162C41.8596 5.66134 41.4314 5.63184 41.0096 5.68478C40.5878 5.73773 40.1808 5.87209 39.8118 6.08016ZM44.1132 17.3694C43.9411 17.6598 44.5802 17.7324 44.3528 18.0651C44.2729 18.1861 44.5556 18.2708 44.783 18.2164C45.0103 18.1619 45.2868 17.9986 45.2131 17.926C44.7461 17.4843 45.3974 17.5085 45.6985 17.321C45.9996 17.1334 46.4298 17.1092 46.4359 16.7765C45.6571 16.9228 44.8893 17.1209 44.1378 17.3694H44.1132ZM46.7124 15.8508C46.6359 15.8381 46.5572 15.8486 46.487 15.881C46.4167 15.9135 46.3581 15.9663 46.3192 16.0323C46.2516 16.1654 46.3622 16.238 46.5711 16.2138C46.78 16.1896 46.8783 16.1352 46.9152 16.0202C46.952 15.9053 46.8476 15.869 46.737 15.8508H46.7124ZM48.3654 16.4014C47.8799 16.2804 47.376 16.117 46.9643 16.6071C46.9016 16.6813 46.8208 16.7385 46.7294 16.7734C46.638 16.8084 46.5392 16.8198 46.4421 16.8067C47.0314 17.0402 47.6871 17.0531 48.2855 16.843C48.3851 16.807 48.4724 16.7441 48.5374 16.6615C48.6726 16.5224 48.5374 16.4377 48.3899 16.4014H48.3654ZM54.7313 15.6936C55.5301 15.5665 56.2614 15.9295 56.8328 15.3306C56.4929 15.1636 56.1074 15.1087 55.7334 15.1741C55.3594 15.2395 55.0167 15.4216 54.7559 15.6936H54.7313ZM62.3017 14.6348C64.3171 14.6348 67.6722 14.4231 68.5079 14.1387C66.4339 14.0213 64.3535 14.1882 62.3262 14.6348H62.3017ZM72.9566 12.6686C72.7846 12.6686 72.6187 12.6686 72.6125 12.8138C72.6064 12.959 72.7232 12.959 72.8522 12.965C72.9812 12.9711 73.1902 12.965 73.1963 12.8259C73.2024 12.6867 73.1164 12.6807 72.9813 12.6686H72.9566Z" fill="#ED5C01"/>
</svg>
