<svg width="475" height="318" viewBox="0 0 475 318" fill="none" xmlns="http://www.w3.org/2000/svg">
<path d="M375.49 309.34L388.969 295.102C399.37 284.116 416.543 283.173 428.084 292.954C446.598 308.645 475 295.486 475 271.217L475 30C475 13.4314 461.569 -2.93434e-05 445 -2.78949e-05L30 8.38555e-06C13.4315 9.83402e-06 2.58001e-06 13.4315 4.02848e-06 30L2.48946e-05 268.68C2.5288e-05 273.181 1.01269 277.624 2.96301 281.68L10.9588 298.31C18.4135 313.814 39.8121 315.535 49.649 301.422C58.4848 288.745 77.1821 288.561 86.2658 301.061L88.7694 304.506C98.8119 318.326 119.475 318.147 129.276 304.155C139.092 290.141 159.995 290.264 170.019 304.129C180.045 317.998 200.946 318.147 210.799 304.155C220.668 290.141 241.579 290.277 251.587 304.191C261.542 318.034 282.346 318.169 292.164 304.228C302.025 290.224 322.777 290.196 332.675 304.174L334.26 306.411C344.004 320.171 363.898 321.584 375.49 309.34Z" fill="#FBF2DA"/>
</svg>
