<svg width="244" height="54" viewBox="0 0 244 54" fill="none" xmlns="http://www.w3.org/2000/svg">
<path d="M216.057 23.9636C214.195 25.56 214.195 28.44 216.057 30.0364L235.795 46.9636C238.614 49.3808 236.904 54 233.191 54H10.8088C7.0957 54 5.38629 49.3808 8.20489 46.9636L27.9433 30.0364C29.8047 28.44 29.8047 25.56 27.9433 23.9636L8.20489 7.03637C5.38629 4.61919 7.0957 0 10.8088 0H233.191C236.904 0 238.614 4.61918 235.795 7.03637L216.057 23.9636Z" fill="#189CAB"/>
<circle cx="69.5" cy="27.5" r="5.5" fill="white"/>
<circle cx="95.6437" cy="27.5" r="5.075" stroke="white" stroke-width="0.85"/>
<circle cx="121.787" cy="27.5" r="5.075" stroke="white" stroke-width="0.85"/>
<circle cx="147.931" cy="27.5" r="5.075" stroke="white" stroke-width="0.85"/>
<circle cx="174.075" cy="27.5" r="5.075" stroke="white" stroke-width="0.85"/>
</svg>
