<svg width="200" height="202" viewBox="0 0 200 202" fill="none" xmlns="http://www.w3.org/2000/svg">
<path d="M101.853 57.5866C97.7992 66.8653 94.33 76.6943 88.5624 85.0087C87.8331 86.0528 86.074 85.4705 86.439 84.1038C88.9725 74.1939 94.1341 64.9857 98.5703 55.7527C99.6084 53.5522 102.825 55.4247 101.853 57.5866Z" fill="#ED5C01"/>
<path d="M110.897 89.5092C110.784 93.3081 110.155 97.1383 108.963 100.762C107.91 103.859 106.5 107.875 103.724 109.837C102.336 110.817 100.791 109.222 101.012 107.761C101.521 104.8 103.835 102.039 104.831 99.1517C105.95 96.0155 106.649 92.767 106.86 89.4448C107.019 86.9532 111.017 86.951 110.897 89.5092Z" fill="#ED5C01"/>
<path d="M99.3637 125.959C100.404 127.757 97.6068 129.376 96.5665 127.577C95.5263 125.779 98.3234 124.161 99.3637 125.959Z" fill="#ED5C01"/>
<path d="M129.821 103.628C128.344 107.682 126.801 111.775 125.219 115.801C124.588 117.322 122.103 116.715 122.696 115.127C124.134 111.006 125.755 107.047 127.298 102.954C127.891 101.367 130.414 102.04 129.821 103.628Z" fill="#ED5C01"/>
<path d="M124.768 133.306C122.539 135.752 121.276 138.793 119.008 141.172C118.068 142.16 116.232 141.444 116.215 140.032C116.367 136.3 119.154 132.821 121.584 130.26C123.596 128.207 126.609 131.264 124.768 133.306Z" fill="#ED5C01"/>
<path d="M125.841 62.021C125.71 66.0967 126.132 70.2077 124.358 73.9009C123.99 74.6472 122.872 74.405 122.62 73.662C121.387 69.8417 122.387 65.8854 122.701 61.9709C122.967 60.1276 125.925 60.0165 125.841 62.021Z" fill="#ED5C01"/>
<path d="M79.8164 186.511C78.5368 188.14 77.2571 189.769 76.044 191.36C75.4655 192.05 74.9746 193.045 74.2524 193.641C73.5303 194.237 72.5875 194.604 71.8549 195.028C71.1889 195.413 70.1833 194.751 70.4464 193.976C70.7761 193.163 70.9236 192.189 71.3584 191.404C71.8599 190.581 72.6486 189.947 73.2936 189.218C74.7451 187.578 76.235 186.005 77.6864 184.366C78.9765 182.908 81.0014 185.026 79.8164 186.511Z" fill="#ED5C01"/>
<path d="M136.485 28.486C136.285 30.2908 136.046 32.029 135.597 33.711C135.333 34.4854 134.611 35.0809 133.819 35.0947C133.094 35.0699 132.165 34.5404 132.046 33.7203C131.889 32.8336 131.732 31.9469 131.746 31.0498C131.799 30.2192 131.747 29.3606 131.799 28.5301C131.793 27.2895 132.894 26.1193 134.173 26.1793C135.308 26.1446 136.717 27.1964 136.485 28.486Z" fill="#ED5C01"/>
<path d="M149.784 42.5683C149.626 45.06 149.467 47.5516 149.242 50.0818C149.063 52.23 149.209 54.6342 148.294 56.5859C147.747 57.7913 145.96 57.3141 145.62 56.2661C145.046 54.1983 145.415 51.7627 145.594 49.6145C145.725 47.228 145.894 44.9081 146.024 42.5215C146.154 40.135 149.981 40.1432 149.784 42.5683Z" fill="#ED5C01"/>
<path d="M104.685 14.083C107.213 19.3756 111.007 25.6254 111.744 31.5097C111.926 33.3602 109.483 33.44 108.656 32.3183C106.898 30.0468 106.023 26.9976 104.997 24.3023C103.883 21.302 102.77 18.3018 101.79 15.2245C101.208 13.6052 103.932 12.4742 104.685 14.083Z" fill="#ED5C01"/>
<path d="M142.205 111.664C141.612 113.252 141.019 114.839 140.426 116.426C139.89 117.804 139.43 119.314 138.539 120.54C138.094 121.153 136.994 120.634 137.019 119.909C137.135 118.419 137.843 117.032 138.38 115.655C138.945 114.173 139.509 112.69 140.074 111.208C140.572 109.764 142.675 110.326 142.205 111.664Z" fill="#ED5C01"/>
<path d="M132.007 148.584C130.542 151.121 129.181 153.686 127.246 155.872C126.857 156.275 126.072 155.84 126.212 155.315C127.18 152.532 128.723 150.129 130.189 147.592C130.88 146.481 132.698 147.474 132.007 148.584Z" fill="#ED5C01"/>
<path d="M106.691 170.431C106.73 170.497 106.663 170.536 106.691 170.431C106.624 170.469 106.691 170.431 106.691 170.431Z" fill="#ED5C01"/>
<path d="M108.223 180.3C105.619 182.251 102.723 185.081 99.6562 186.233C98.6468 186.64 98.1146 185.259 98.693 184.568C99.7553 183.332 101.287 182.446 102.609 181.503C104.13 180.445 105.585 179.426 107.106 178.368C108.333 177.57 109.412 179.434 108.223 180.3Z" fill="#ED5C01"/>
<path d="M70.5594 71.8677C70.4746 73.8723 70.4179 75.7717 70.3332 77.7762C70.266 79.504 70.2093 81.4034 69.5499 83.0293C69.0694 84.1961 67.3874 83.747 67.0478 82.699C66.5332 81.0412 66.8282 79.0928 67.0005 77.3932C67.1623 75.5218 67.3241 73.6504 67.4859 71.7791C67.5041 69.8131 70.6722 69.758 70.5594 71.8677Z" fill="#ED5C01"/>
<path d="M143.019 82.0371C143.828 83.4356 141.697 84.6685 140.888 83.27C140.117 81.938 142.248 80.7051 143.019 82.0371Z" fill="#ED5C01"/>
</svg>
