<svg width="183" height="229" viewBox="0 0 183 229" fill="none" xmlns="http://www.w3.org/2000/svg">
<g clip-path="url(#clip0_1_798)">
<path d="M108.552 10.2498C108.154 10.4481 107.756 10.7126 107.359 11.0433C105.768 12.2336 104.642 14.019 103.316 15.6061C100.997 18.5818 98.2796 21.1608 95.2974 23.2108C95.0986 24.7978 93.7731 26.0543 92.3815 26.0543C92.3152 27.2446 92.1827 28.3687 92.1164 29.559C88.4052 34.0557 85.4893 39.4782 83.7 45.2974C82.971 45.3635 82.1758 45.4958 81.4468 45.628C80.0551 48.6038 78.7297 51.5134 77.338 54.4891C76.5428 54.6875 75.8801 55.3488 75.2174 56.0101C73.8919 57.3988 72.5665 58.7874 71.8375 60.639C70.9098 63.0196 71.1748 65.8631 70.2471 68.2437C69.7169 69.5001 68.9216 70.5582 68.524 71.8146C68.1927 72.8726 68.2589 74.1291 68.8554 74.9887C68.7228 75.3194 68.524 75.5839 68.3915 75.9145C66.4696 76.9064 64.8129 78.5596 63.7525 80.7418C63.2224 81.0063 62.6259 81.2708 62.0958 81.4692C61.0354 82.9902 59.9751 84.5111 58.9148 86.032C57.9207 86.0982 56.9266 86.2304 55.9326 86.2965C54.7397 87.6852 53.6131 89.0739 52.4202 90.5287C53.8119 90.8593 55.1373 91.2561 56.529 91.6529C56.6616 92.4464 56.3965 93.3061 55.8663 93.9012C55.9326 95.8189 55.9988 97.7366 56.0651 99.6543C55.6012 100.58 55.0711 101.572 54.6072 102.498L53.7456 104.217C53.5468 104.68 53.2817 105.143 53.0829 105.54C53.0829 105.606 53.0167 105.672 53.0167 105.672C51.3599 105.143 49.7031 105.077 48.0464 105.407C48.5765 107.127 49.173 108.78 49.7031 110.499C48.1789 113.078 46.6547 115.723 45.1305 118.302C45.8594 119.426 44.9979 121.08 43.8713 121.476C42.7447 121.873 41.5518 121.344 40.4252 120.881C40.9554 123.196 40.4252 125.775 39.0998 127.56C39.8951 127.957 39.9613 129.28 39.5637 130.139C39.1661 130.999 38.3708 131.528 37.7744 132.123C35.9188 133.975 34.9248 136.686 33.9307 139.265C33.3343 140.918 32.7378 142.571 32.1414 144.224C30.6834 148.258 27.3699 149.382 25.6469 153.284C25.4481 153.747 25.9782 155.4 26.2433 156.656C25.9119 157.318 25.5143 157.913 25.183 158.574C25.0504 158.64 24.9842 158.64 24.8516 158.706C23.4599 159.235 21.9357 162.013 21.8694 162.013C21.8694 162.013 21.5381 163.071 21.4718 163.997L21.2067 163.93C21.2067 163.005 21.273 162.079 21.3393 161.153C21.3393 160.822 21.4055 160.492 21.4055 160.161C21.5381 158.177 21.7369 156.127 22.002 154.144C22.0682 153.747 22.0682 153.35 22.1345 153.019C22.2008 152.623 22.2671 152.226 22.2671 151.895C22.5321 149.911 22.8635 147.928 23.1286 145.944C23.2611 145.282 23.3274 144.687 23.4599 144.092C23.6587 142.77 23.9238 141.381 24.1889 140.058C24.3214 139.199 24.5203 138.339 24.7191 137.479C24.8516 136.686 25.0504 135.892 25.2492 135.099C25.2492 135.033 25.2492 134.966 25.3155 134.9C25.8457 132.321 26.5084 129.742 27.1048 127.163C27.1711 127.031 27.1711 126.833 27.2374 126.634C27.3699 125.973 27.5687 125.378 27.7675 124.717C27.9001 124.254 28.0326 123.791 28.0989 123.328C28.2977 122.534 28.5628 121.741 28.7616 120.947C29.1592 119.559 29.5568 118.236 29.9545 116.848C30.3521 115.525 30.7497 114.202 31.2136 112.814C31.4787 111.954 31.7438 111.161 32.0089 110.301C32.2739 109.441 32.539 108.648 32.8704 107.788C36.9129 95.885 41.8169 84.2466 47.5825 73.2033C48.444 71.5501 49.3055 69.8969 50.167 68.3098C50.2333 68.1776 50.2996 68.0453 50.3658 67.9792C50.6972 67.3179 51.0948 66.6566 51.4262 66.0615L52.0889 64.9373C54.4084 60.9035 56.8604 57.002 59.3787 53.1666C60.5053 51.4473 61.6981 49.7941 62.891 48.1409C63.1561 47.7441 63.4874 47.3474 63.7525 46.9506C64.5478 45.8926 65.343 44.8345 66.1383 43.7765C68.524 40.7346 70.976 37.7589 73.5606 34.9815C76.0789 32.138 78.8622 29.4929 81.6456 26.9139C83.0373 25.6575 84.4953 24.4672 85.9532 23.2108C86.6822 22.6156 87.4112 22.0205 88.1401 21.4915L90.3933 19.8383C91.1886 19.3092 91.9176 18.7141 92.7128 18.2512C93.5081 17.7883 94.3033 17.2593 95.0986 16.7964C96.6891 15.8706 98.2133 14.8787 99.9363 14.0852C100.665 13.6884 101.461 13.3578 102.19 12.961C102.256 12.961 102.322 12.8949 102.388 12.8949C103.184 12.4981 104.045 12.1013 104.907 11.8368C106.033 11.1094 107.292 10.6465 108.552 10.2498Z" fill="#EBE3CC"/>
<path d="M108.552 10.2498C108.154 10.4481 107.756 10.7126 107.359 11.0433C105.768 12.2336 104.642 14.019 103.316 15.6061C100.997 18.5818 98.2796 21.1608 95.2974 23.2108C95.0986 24.7978 93.7731 26.0543 92.3815 26.0543C92.3152 27.2446 92.1827 28.3687 92.1164 29.559C88.4052 34.0557 85.4893 39.4782 83.7 45.2974C82.971 45.3635 82.1758 45.4958 81.4468 45.628C80.0551 48.6038 78.7297 51.5134 77.338 54.4891C76.5428 54.6875 75.8801 55.3488 75.2174 56.0101C73.8919 57.3988 72.5665 58.7874 71.8375 60.639C70.9098 63.0196 71.1748 65.8631 70.2471 68.2437C69.7169 69.5001 68.9216 70.5582 68.524 71.8146C68.1927 72.8726 68.2589 74.1291 68.8554 74.9887C68.7228 75.3194 68.524 75.5839 68.3915 75.9145C66.4696 76.9064 64.8129 78.5596 63.7525 80.7418C63.2224 81.0063 62.6259 81.2708 62.0958 81.4692C61.0354 82.9902 59.9751 84.5111 58.9148 86.032C57.9207 86.0982 56.9266 86.2304 55.9326 86.2965C54.7397 87.6852 53.6131 89.0739 52.4202 90.5287C53.8119 90.8593 55.1373 91.2561 56.529 91.6529C56.6616 92.4464 56.3965 93.3061 55.8663 93.9012C55.9326 95.8189 55.9988 97.7366 56.0651 99.6543C55.6012 100.58 55.0711 101.572 54.6072 102.498L53.7456 104.217C53.5468 104.68 53.2817 105.143 53.0829 105.54C53.0829 105.606 53.0167 105.672 53.0167 105.672C51.3599 105.143 49.7031 105.077 48.0464 105.407C48.5765 107.127 49.173 108.78 49.7031 110.499C48.1789 113.078 46.6547 115.723 45.1305 118.302C45.8594 119.426 44.9979 121.08 43.8713 121.476C42.7447 121.873 41.5518 121.344 40.4252 120.881C40.9554 123.196 40.4252 125.775 39.0998 127.56C39.8951 127.957 39.9613 129.28 39.5637 130.139C39.1661 130.999 38.3708 131.528 37.7744 132.123C35.9188 133.975 34.9248 136.686 33.9307 139.265C33.3343 140.918 32.7378 142.571 32.1414 144.224C30.6834 148.258 27.3699 149.382 25.6469 153.284C25.4481 153.747 25.9782 155.4 26.2433 156.656C25.9119 157.318 25.5143 157.913 25.183 158.574C25.0504 158.64 24.9842 158.64 24.8516 158.706C23.4599 159.235 21.9357 162.013 21.8694 162.013C21.8694 162.013 21.5381 163.071 21.4718 163.997L21.2067 163.93C21.2067 163.005 21.273 162.079 21.3393 161.153C21.3393 160.822 21.4055 160.492 21.4055 160.161C21.5381 158.177 21.7369 156.127 22.002 154.144C22.0682 153.747 22.0682 153.35 22.1345 153.019C22.0682 152.027 22.002 151.035 21.8032 150.044C21.6044 149.184 21.4055 148.324 21.5381 147.398C21.7369 146.076 22.6647 145.084 23.4599 144.026C23.725 142.703 23.9238 141.315 24.1889 139.992C24.3214 139.133 24.5203 138.273 24.7191 137.413C24.8516 136.62 25.0504 135.826 25.2492 135.033C25.2492 134.966 25.2492 134.9 25.3155 134.834C25.0504 133.446 24.454 132.189 23.725 131.065C24.6528 129.544 25.8457 128.155 27.1711 127.097C27.2374 126.965 27.2374 126.767 27.3036 126.568C27.4362 125.907 27.635 125.312 27.8338 124.651C27.9663 124.188 28.0989 123.725 28.1652 123.262C28.364 122.468 28.629 121.675 28.8279 120.881C28.1652 117.972 29.1592 114.599 31.2136 112.814C31.4787 111.954 31.7438 111.161 32.0089 110.301C32.2739 109.441 32.539 108.648 32.8704 107.788C32.7378 107.259 32.7378 106.664 32.7378 106.135C33.0029 102.895 33.997 99.7866 35.6537 97.1415C36.3827 95.9512 37.3105 94.8931 37.8407 93.5706C39.0998 90.661 38.7022 86.9578 40.4915 84.445C41.2205 83.453 42.2145 82.7256 42.6784 81.6015C43.6062 79.5515 42.8772 76.5758 44.4677 75.2532C44.9316 74.8565 45.5281 74.7242 45.9257 74.1952C46.5884 73.2033 45.8594 71.6823 46.1908 70.492C46.6547 68.8388 48.6428 68.7727 50.167 68.3098C50.2333 68.1776 50.2996 68.0453 50.3658 67.9792C50.6972 67.3179 51.0948 66.6566 51.4262 66.0615L52.0889 64.9373V64.8712C52.2214 62.6228 53.8782 60.9035 55.1373 59.2503C56.3965 57.531 57.3905 54.952 56.2639 53.1005C57.0592 53.5634 57.987 52.5714 58.3846 51.5795C58.7822 50.5876 59.0473 49.3973 59.8426 48.9344C60.5053 48.5377 61.2342 48.736 61.9632 48.6038C62.3608 48.5377 62.6922 48.3393 62.9573 48.1409C63.2224 47.7441 63.5537 47.3474 63.8188 46.9506C64.4152 45.6942 64.4152 44.041 63.4874 43.0491C65.4093 42.52 66.801 40.1394 66.4696 37.8911C67.795 39.0153 69.5181 37.3621 70.4459 35.8412C72.5665 32.6009 74.6872 29.4268 76.8079 26.1865C77.2717 25.5252 77.7356 24.7978 78.3983 24.4672C79.6575 23.8059 81.248 24.5995 82.4409 23.8059C83.0373 23.4092 83.3687 22.6818 83.7663 22.0205C86.2846 18.2512 91.2549 18.3173 94.6347 15.6061C95.8938 14.6142 96.8879 13.1594 98.2133 12.2997C99.5387 11.3739 101.328 11.0433 102.521 12.2336C102.388 12.4981 102.322 12.6965 102.19 12.8949C102.256 12.8949 102.322 12.8287 102.388 12.8287C103.184 12.432 104.045 12.0352 104.907 11.7707C106.033 11.1094 107.292 10.6465 108.552 10.2498Z" fill="#EBE3CC"/>
<path d="M196.691 52.7698C196.294 52.9682 195.896 53.2327 195.498 53.5633C193.908 54.7536 192.781 56.539 191.522 58.1261C189.203 61.1019 186.485 63.6808 183.503 65.7308C183.304 67.3179 181.979 68.5743 180.587 68.5743C180.455 69.7646 180.389 70.8887 180.322 72.079C176.611 76.5757 173.695 81.9982 171.906 87.8174C171.177 87.8835 170.382 88.0158 169.653 88.0819C168.261 91.0577 166.936 93.9673 165.544 96.943C164.749 97.1414 164.086 97.8027 163.423 98.464C162.098 99.8526 160.772 101.241 160.043 103.159C159.116 105.54 159.381 108.383 158.453 110.764C157.923 112.02 157.128 113.078 156.73 114.335C156.399 115.393 156.465 116.649 156.995 117.509C156.862 117.839 156.664 118.104 156.531 118.435C154.609 119.36 152.952 121.08 151.892 123.262C151.362 123.526 150.766 123.725 150.235 123.989C149.175 125.51 148.115 127.031 147.054 128.552C146.06 128.618 145.066 128.75 144.072 128.817C142.879 130.205 141.753 131.594 140.56 133.049C141.952 133.379 143.277 133.776 144.669 134.107C144.801 134.9 144.536 135.76 144.006 136.355C144.072 138.273 144.138 140.19 144.205 142.108C143.741 143.1 143.211 144.026 142.747 145.018C142.018 145.877 141.421 146.936 141.223 148.06C141.223 148.126 141.156 148.192 141.156 148.258C139.5 147.729 137.843 147.663 136.186 147.994C136.716 149.713 137.313 151.366 137.843 153.085C136.319 155.664 134.794 158.309 133.27 160.888C133.999 162.013 133.138 163.666 132.011 164.063C130.884 164.459 129.625 163.996 128.565 163.467C129.095 165.782 128.565 168.361 127.239 170.146C128.035 170.543 128.101 171.866 127.703 172.725C127.306 173.585 126.51 174.114 125.914 174.709C124.058 176.561 123.064 179.272 122.07 181.851C121.474 183.504 120.877 185.157 120.281 186.81C118.823 190.844 115.51 191.968 113.787 195.87C113.588 196.333 114.118 197.986 114.383 199.242C114.052 199.904 113.654 200.499 113.256 201.16C113.19 201.226 113.058 201.226 112.925 201.292C111.533 201.821 110.009 204.599 109.943 204.599C109.943 204.599 109.611 205.657 109.545 206.583L109.28 206.517C109.28 205.591 109.346 204.665 109.413 203.739C109.413 203.409 109.479 203.012 109.479 202.681C109.479 202.549 109.479 202.417 109.479 202.218C109.479 201.888 109.545 201.557 109.545 201.16C109.678 199.639 109.81 198.184 110.009 196.663C110.075 196.267 110.075 195.87 110.142 195.539C110.208 195.143 110.208 194.746 110.274 194.415C110.539 192.431 110.871 190.448 111.136 188.464C111.268 187.802 111.334 187.207 111.467 186.612C111.732 185.29 111.931 183.901 112.196 182.578C112.395 181.719 112.527 180.859 112.726 179.999C112.859 179.206 113.058 178.412 113.256 177.619C113.256 177.553 113.256 177.486 113.323 177.42C113.853 174.841 114.515 172.262 115.112 169.683C115.178 169.485 115.178 169.353 115.244 169.154C115.377 168.493 115.576 167.832 115.775 167.171C115.907 166.642 116.04 166.113 116.172 165.584C116.239 165.319 116.305 164.988 116.437 164.724C116.901 162.938 117.431 161.219 117.962 159.434C118.558 157.516 119.088 155.664 119.751 153.813C120.082 152.887 120.347 151.961 120.679 151.035C124.787 138.868 129.691 127.097 135.59 115.856C136.451 114.136 137.379 112.417 138.373 110.698C138.837 109.904 139.301 109.044 139.698 108.251C139.765 108.185 139.765 108.119 139.831 108.052C139.897 107.854 140.03 107.722 140.096 107.523C142.415 103.49 144.867 99.5881 147.386 95.7527C148.512 94.0334 149.705 92.3802 150.898 90.727C151.163 90.3303 151.495 89.9335 151.76 89.5367C152.555 88.4787 153.35 87.4207 154.145 86.3626C156.531 83.3207 158.917 80.345 161.568 77.5676C164.086 74.7241 166.869 72.079 169.653 69.5001C171.111 68.2436 172.502 67.0533 173.96 65.7969C174.689 65.2018 175.418 64.6066 176.214 64.0776L178.467 62.4244C179.262 61.8954 179.991 61.3002 180.786 60.8373C181.581 60.3745 182.377 59.8454 183.172 59.3825C184.762 58.4568 186.287 57.4648 188.01 56.6713C188.739 56.2745 189.534 55.9439 190.263 55.5471C190.329 55.5471 190.395 55.481 190.462 55.481C191.257 55.0842 192.118 54.6875 192.98 54.423C194.173 53.5633 195.432 53.1665 196.691 52.7698Z" fill="#EBE3CC"/>
<path d="M196.691 52.7698C196.294 52.9682 195.896 53.2327 195.498 53.5633C193.908 54.7536 192.781 56.539 191.522 58.1261C189.203 61.1019 186.485 63.6808 183.503 65.7308C183.304 67.3179 181.979 68.5743 180.587 68.5743C180.455 69.7646 180.389 70.8887 180.322 72.079C176.611 76.5757 173.695 81.9982 171.906 87.8174C171.177 87.8835 170.382 88.0158 169.653 88.0819C168.261 91.0577 166.936 93.9673 165.544 96.943C164.749 97.1414 164.086 97.8027 163.423 98.464C162.098 99.8526 160.772 101.241 160.043 103.159C159.116 105.54 159.381 108.383 158.453 110.764C157.923 112.02 157.128 113.078 156.73 114.335C156.399 115.393 156.465 116.649 156.995 117.509C156.862 117.839 156.664 118.104 156.531 118.435C154.609 119.36 152.952 121.08 151.892 123.262C151.362 123.526 150.766 123.725 150.235 123.989C149.175 125.51 148.115 127.031 147.054 128.552C146.06 128.618 145.066 128.75 144.072 128.817C142.879 130.205 141.753 131.594 140.56 133.049C141.952 133.379 143.277 133.776 144.669 134.107C144.801 134.9 144.536 135.76 144.006 136.355C144.072 138.273 144.138 140.19 144.205 142.108C143.741 143.1 143.211 144.026 142.747 145.018C142.018 145.877 141.421 146.936 141.223 148.06C141.223 148.126 141.156 148.192 141.156 148.258C139.5 147.729 137.843 147.663 136.186 147.994C136.716 149.713 137.313 151.366 137.843 153.085C136.319 155.664 134.794 158.309 133.27 160.888C133.999 162.013 133.138 163.666 132.011 164.063C130.884 164.459 129.625 163.996 128.565 163.467C129.095 165.782 128.565 168.361 127.239 170.146C128.035 170.543 128.101 171.866 127.703 172.725C127.306 173.585 126.51 174.114 125.914 174.709C124.058 176.561 123.064 179.272 122.07 181.851C121.474 183.504 120.877 185.157 120.281 186.81C118.823 190.844 115.51 191.968 113.787 195.87C113.588 196.333 114.118 197.986 114.383 199.242C114.052 199.904 113.654 200.499 113.256 201.16C113.19 201.226 113.058 201.226 112.925 201.292C111.533 201.821 110.009 204.599 109.943 204.599C109.943 204.599 109.611 205.657 109.545 206.583L109.28 206.517C109.28 205.591 109.346 204.665 109.413 203.739C109.413 203.409 109.479 203.012 109.479 202.681C109.479 202.549 109.479 202.417 109.479 202.218C109.479 201.888 109.545 201.557 109.545 201.16C109.678 199.639 109.81 198.184 110.009 196.663C110.075 196.267 110.075 195.87 110.142 195.539C110.075 194.547 110.009 193.556 109.81 192.564C109.611 191.704 109.413 190.778 109.545 189.918C109.744 188.53 110.738 187.604 111.467 186.546C111.732 185.223 111.931 183.835 112.196 182.512C112.395 181.653 112.527 180.793 112.726 179.933C112.859 179.14 113.058 178.346 113.256 177.553C113.256 177.486 113.256 177.42 113.323 177.354C112.991 175.966 112.461 174.643 111.732 173.585C112.66 172.064 113.853 170.675 115.178 169.617C115.244 169.419 115.244 169.287 115.311 169.088C115.443 168.427 115.642 167.766 115.841 167.104C115.973 166.575 116.106 166.046 116.239 165.517C116.305 165.253 116.371 164.922 116.504 164.658C116.636 164.261 116.702 163.864 116.835 163.467C116.172 160.558 117.166 157.185 119.221 155.4C119.42 154.871 119.552 154.276 119.751 153.747C120.082 152.821 120.347 151.895 120.679 150.969C120.745 150.771 120.811 150.573 120.877 150.374C120.745 149.845 120.745 149.25 120.745 148.721C121.01 145.481 122.004 142.373 123.661 139.728C124.39 138.537 125.318 137.479 125.848 136.157C127.107 133.247 126.709 129.544 128.432 127.031C129.161 126.039 130.155 125.312 130.619 124.188C131.547 122.204 130.818 119.162 132.409 117.839C132.872 117.443 133.469 117.31 133.867 116.781C134.529 115.789 133.8 114.268 134.132 113.078C134.596 111.425 136.584 111.359 138.108 110.896C138.174 110.83 138.174 110.764 138.24 110.631C138.704 109.838 139.168 108.978 139.566 108.185C139.632 108.119 139.632 108.052 139.698 107.986C139.765 107.788 139.897 107.656 139.963 107.457V107.391C140.096 105.143 141.753 103.49 143.012 101.77C144.271 100.051 145.331 97.4721 144.138 95.6866C144.934 96.1495 145.862 95.1576 146.259 94.1657C146.657 93.1738 146.922 91.9835 147.717 91.5206C148.38 91.1238 149.109 91.3222 149.838 91.1899C150.235 91.1238 150.567 90.9254 150.898 90.727C151.163 90.3303 151.495 89.9335 151.76 89.5367C152.356 88.2803 152.356 86.6271 151.428 85.6352C153.35 85.1062 154.742 82.7256 154.41 80.4772C155.736 81.6014 157.459 79.9482 158.453 78.4273C160.574 75.187 162.694 72.0129 164.815 68.7727C165.279 68.1114 165.743 67.384 166.405 67.0533C167.665 66.3921 169.255 67.1856 170.448 66.3921C171.044 65.9953 171.376 65.2679 171.773 64.6066C174.292 60.8373 179.262 60.9035 182.642 58.1261C183.901 57.1342 184.895 55.7455 186.22 54.8197C187.546 53.8939 189.335 53.5633 190.528 54.7536C190.395 54.952 190.329 55.2165 190.197 55.4149C190.263 55.4149 190.329 55.3487 190.395 55.3487C191.191 54.952 192.052 54.5552 192.914 54.2907C194.173 53.5633 195.432 53.1665 196.691 52.7698Z" fill="#EBE3CC"/>
<path d="M56.1973 23.0123C55.9322 23.1446 55.6671 23.343 55.402 23.5413C54.4079 24.3349 53.6127 25.4591 52.8174 26.451C51.2932 28.3687 49.5702 30.0219 47.6483 31.3444C47.5158 32.3363 46.6543 33.196 45.7928 33.196C45.7265 33.9234 45.6602 34.6508 45.5939 35.4443C43.2082 38.3539 41.3526 41.7926 40.1597 45.5619C39.6959 45.628 39.1657 45.6941 38.7018 45.7602C37.8403 47.6779 36.9125 49.5295 36.051 51.4472C35.5208 51.5795 35.1232 51.9762 34.7255 52.4391C33.864 53.2988 33.0025 54.2246 32.5386 55.4149C31.9422 56.9358 32.141 58.7874 31.5446 60.3083C31.2132 61.1018 30.683 61.7631 30.418 62.6228C30.2191 63.2841 30.2191 64.1437 30.6168 64.6727C30.4842 64.8711 30.418 65.0695 30.2854 65.2679C29.0263 65.863 27.9659 66.9872 27.3032 68.3759C26.9719 68.5081 26.5742 68.7065 26.2429 68.8388C25.5802 69.8307 24.8512 70.8226 24.1885 71.7484C23.5258 71.8145 22.9294 71.8807 22.2667 71.9468C21.5377 72.8726 20.7424 73.7322 20.0134 74.658C20.875 74.9225 21.8028 75.1209 22.6643 75.3854C22.7305 75.9144 22.598 76.4435 22.2667 76.8402L22.3992 80.5434C22.0678 81.1385 21.7365 81.7337 21.4714 82.395C21.0075 82.924 20.6099 83.5853 20.4773 84.3788C20.4773 84.3788 20.4773 84.4449 20.4111 84.511C19.3507 84.1804 18.2904 84.1143 17.2301 84.3126C17.5614 85.4368 17.9591 86.4949 18.2904 87.5529C17.2964 89.2061 16.3023 90.9254 15.3745 92.5786C15.8384 93.306 15.3082 94.3641 14.5793 94.6286C13.8503 94.8931 13.055 94.5624 12.326 94.2318C12.6574 95.6866 12.326 97.3398 11.4645 98.5301C11.9947 98.7946 11.9947 99.6543 11.7296 100.183C11.4645 100.712 11.0006 101.043 10.5367 101.506C9.34386 102.696 8.68116 104.415 8.08472 106.069C7.6871 107.127 7.28947 108.185 6.95812 109.243C6.03033 111.822 3.90967 112.549 2.78306 115.062C2.65052 115.327 2.98188 116.385 3.18069 117.178C2.91561 117.575 2.71679 117.972 2.45171 118.435C2.38544 118.435 2.31917 118.501 2.2529 118.501C1.39138 118.831 0.397319 120.617 0.331048 120.617C0.331048 120.617 0.132236 121.278 0.0659655 121.939L-0.000305176 121.807C-0.000305176 121.146 0.0659655 120.484 0.0659655 119.823C0.0659655 119.493 0.132236 119.162 0.132236 118.831C0.132236 118.501 0.198507 118.104 0.198507 117.773C0.198507 117.443 0.264778 117.178 0.264778 116.847C0.264778 116.649 0.331048 116.451 0.331048 116.252C0.331048 115.988 0.397319 115.789 0.397319 115.525C0.397319 115.26 0.46359 114.93 0.52986 114.665C0.52986 114.401 0.596131 114.136 0.596131 113.938C0.728673 112.615 0.927485 111.359 1.19257 110.102C1.25884 109.706 1.32511 109.309 1.39138 108.912C1.52392 108.052 1.72273 107.193 1.85527 106.333C2.05409 105.209 2.31917 104.085 2.51798 103.027C2.84934 101.374 3.24696 99.7204 3.71085 98.0672C3.8434 97.4059 4.04221 96.7446 4.24102 96.0834C4.43983 95.4221 4.57237 94.7608 4.77119 94.0995C5.03627 93.2399 5.30135 92.3802 5.50016 91.4544C5.76525 90.5948 6.03033 89.7351 6.29541 88.8755C6.62677 87.8174 6.95812 86.6932 7.35574 85.6352C9.9403 77.9644 13.1213 70.5581 16.7662 63.4163C17.2963 62.3583 17.8928 61.3002 18.423 60.2422C18.4892 60.1761 18.5555 60.0438 18.5555 59.9777C18.8206 59.5148 19.0194 59.118 19.2845 58.6551C19.417 58.4567 19.4833 58.2584 19.6158 58.06C21.0738 55.481 22.6643 52.9682 24.321 50.5214C25.05 49.3973 25.779 48.3392 26.5742 47.2812C26.7731 47.0167 26.9719 46.7522 27.1044 46.4876C27.6346 45.8264 28.0985 45.099 28.6286 44.4377C30.1529 42.52 31.7434 40.6023 33.4001 38.7507C35.0569 36.8991 36.7799 35.2459 38.5692 33.5266C39.497 32.7331 40.4248 31.9396 41.3526 31.146C41.8165 30.7493 42.2804 30.4186 42.8106 30.0219L44.2685 28.9638C44.7987 28.6332 45.2626 28.2364 45.7265 27.9058C46.2566 27.5751 46.7205 27.2445 47.2507 26.98C48.2448 26.3848 49.2388 25.7236 50.3654 25.2607C50.8293 24.9962 51.3595 24.7978 51.8234 24.5333C51.8897 24.5333 51.8897 24.4671 51.9559 24.4671C52.4861 24.2026 53.0163 23.9381 53.5464 23.8059C54.5405 23.6075 55.402 23.2768 56.1973 23.0123Z" fill="#EBE3CC"/>
<path d="M56.1973 23.0123C55.9322 23.1446 55.6671 23.343 55.402 23.5413C54.4079 24.3349 53.6127 25.4591 52.8174 26.451C51.2932 28.3687 49.5702 30.0219 47.6483 31.3444C47.5158 32.3363 46.6543 33.196 45.7928 33.196C45.7265 33.9234 45.6602 34.6508 45.5939 35.4443C43.2082 38.3539 41.3526 41.7926 40.1597 45.5619C39.6959 45.628 39.1657 45.6941 38.7018 45.7602C37.8403 47.6779 36.9125 49.5295 36.051 51.4472C35.5208 51.5795 35.1232 51.9762 34.7255 52.4391C33.864 53.2988 33.0025 54.2246 32.5386 55.4149C31.9422 56.9358 32.141 58.7874 31.5446 60.3083C31.2132 61.1018 30.683 61.7631 30.418 62.6228C30.2191 63.2841 30.2191 64.1437 30.6168 64.6727C30.4842 64.8711 30.418 65.0695 30.2854 65.2679C29.0263 65.863 27.9659 66.9872 27.3032 68.3759C26.9719 68.5081 26.5742 68.7065 26.2429 68.8388C25.5802 69.8307 24.8512 70.8226 24.1885 71.7484C23.5258 71.8145 22.9294 71.8807 22.2667 71.9468C21.5377 72.8726 20.7424 73.7322 20.0134 74.658C20.875 74.9225 21.8028 75.1209 22.6643 75.3854C22.7305 75.9144 22.598 76.4435 22.2667 76.8402L22.3992 80.5434C22.0678 81.1385 21.7365 81.7337 21.4714 82.395C21.0075 82.924 20.6099 83.5853 20.4773 84.3788C20.4773 84.3788 20.4773 84.4449 20.4111 84.511C19.3507 84.1804 18.2904 84.1143 17.2301 84.3126C17.5614 85.4368 17.9591 86.4949 18.2904 87.5529C17.2964 89.2061 16.3023 90.9254 15.3745 92.5786C15.8384 93.306 15.3082 94.3641 14.5793 94.6286C13.8503 94.8931 13.055 94.5624 12.326 94.2318C12.6574 95.6866 12.326 97.3398 11.4645 98.5301C11.9947 98.7946 11.9947 99.6543 11.7296 100.183C11.4645 100.712 11.0006 101.043 10.5367 101.506C9.34386 102.696 8.68116 104.415 8.08472 106.069C7.6871 107.127 7.28947 108.185 6.95812 109.243C6.03033 111.822 3.90967 112.549 2.78306 115.062C2.65052 115.327 2.98188 116.385 3.18069 117.178C2.91561 117.575 2.71679 117.972 2.45171 118.435C2.38544 118.435 2.31917 118.501 2.2529 118.501C1.39138 118.831 0.397319 120.617 0.331048 120.617C0.331048 120.617 0.132236 121.278 0.0659655 121.939L-0.000305176 121.807C-0.000305176 121.146 0.0659655 120.484 0.0659655 119.823C0.0659655 119.493 0.132236 119.162 0.132236 118.831C0.132236 118.501 0.198507 118.104 0.198507 117.773C0.198507 117.443 0.264778 117.178 0.264778 116.847C0.264778 116.649 0.331048 116.451 0.331048 116.252C0.331048 115.988 0.397319 115.789 0.397319 115.525C0.397319 115.26 0.46359 114.93 0.52986 114.665C0.46359 114.004 0.397319 113.343 0.331048 112.748C0.198507 112.219 0.0659655 111.623 0.198507 111.094C0.331048 110.235 0.927485 109.573 1.45765 108.912C1.59019 108.052 1.789 107.193 1.92155 106.333C2.12036 105.209 2.38544 104.085 2.58425 103.027C2.38544 102.167 2.05409 101.307 1.52392 100.58C2.12036 99.5881 2.84934 98.7285 3.71085 98.0672C3.8434 97.4059 4.04221 96.7446 4.24102 96.0834C4.43983 95.4221 4.57237 94.7608 4.77119 94.0995C4.37356 92.248 4.97 90.0658 6.29541 88.8755C6.62677 87.8174 6.95812 86.6932 7.35574 85.6352C7.2232 85.3046 7.28947 84.9078 7.28947 84.5772C7.42201 82.5272 8.08472 80.4772 9.14505 78.8241C9.60895 78.0305 10.2054 77.3692 10.5367 76.5096C11.332 74.658 11.0669 72.2774 12.1935 70.6242C12.6574 69.963 13.3201 69.5001 13.6515 68.7727C14.2479 67.4501 13.784 65.5324 14.8443 64.6727C15.1757 64.4082 15.507 64.3421 15.7721 64.0115C16.236 63.3502 15.7059 62.3583 15.9047 61.6309C16.236 60.5728 17.4952 60.5728 18.423 60.2422C18.4892 60.1761 18.5555 60.0438 18.5555 59.9777C18.8206 59.5148 19.0194 59.118 19.2845 58.6551C19.417 58.4567 19.4833 58.2584 19.6158 58.06C19.6158 58.06 19.6158 58.06 19.6158 57.9939C19.6821 56.539 20.7424 55.481 21.5377 54.3568C22.3329 53.2327 22.9956 51.5795 22.2667 50.3892C22.7968 50.7198 23.3933 50.0585 23.5921 49.3973C23.7909 48.736 23.9897 48.0086 24.5199 47.6779C24.9175 47.4134 25.3814 47.5457 25.8453 47.4796C26.1104 47.4134 26.3092 47.3473 26.508 47.1489C26.7068 46.8844 26.9056 46.6199 27.0381 46.3554C27.4358 45.5619 27.4358 44.5038 26.8393 43.8425C28.0985 43.5119 28.96 41.991 28.7612 40.5362C29.6227 41.2636 30.683 40.2055 31.3457 39.2136C32.7374 37.1636 34.0628 35.0476 35.4545 32.9976C35.7196 32.5347 36.051 32.1379 36.4486 31.8734C37.2438 31.4767 38.3042 31.9396 39.0331 31.4767C39.4308 31.2122 39.6296 30.7493 39.8947 30.3525C41.5514 27.9058 44.7324 27.9719 46.8531 26.1865C47.6483 25.5252 48.311 24.6655 49.1726 24.0704C50.0341 23.4752 51.1607 23.2768 51.8897 24.0042C51.8234 24.1365 51.7571 24.3349 51.6908 24.4671C51.7571 24.4671 51.7571 24.401 51.8234 24.401C52.3536 24.1365 52.8837 23.872 53.4139 23.7397C54.5405 23.6075 55.402 23.2768 56.1973 23.0123Z" fill="#EBE3CC"/>
<path d="M212 98.5302C211.735 98.6624 211.47 98.8608 211.204 99.0592C210.21 99.8527 209.415 100.977 208.62 102.035C207.096 103.953 205.373 105.606 203.451 106.928C203.318 107.92 202.457 108.78 201.595 108.78C201.529 109.507 201.463 110.301 201.396 111.028C199.011 113.938 197.155 117.377 195.962 121.146C195.498 121.212 194.968 121.278 194.504 121.344C193.643 123.262 192.715 125.113 191.853 127.031C191.323 127.163 190.926 127.626 190.528 128.023C189.666 128.883 188.805 129.809 188.341 130.999C187.745 132.52 187.943 134.371 187.347 135.892C187.016 136.686 186.485 137.347 186.22 138.207C186.022 138.868 186.022 139.728 186.419 140.257C186.287 140.455 186.22 140.653 186.088 140.852C184.829 141.447 183.768 142.571 183.106 143.96C182.774 144.092 182.377 144.29 182.045 144.423C181.383 145.415 180.654 146.407 179.991 147.332C179.328 147.398 178.732 147.465 178.069 147.531C177.34 148.457 176.545 149.316 175.816 150.242C176.677 150.44 177.539 150.705 178.467 150.969C178.533 151.498 178.4 152.027 178.069 152.424C178.069 153.681 178.135 154.937 178.202 156.127C177.87 156.722 177.605 157.384 177.274 157.979C176.81 158.508 176.412 159.169 176.28 159.963C176.28 159.963 176.28 160.029 176.213 160.095C175.153 159.764 174.093 159.698 173.032 159.897C173.364 160.955 173.761 162.079 174.093 163.137C173.099 164.79 172.105 166.509 171.177 168.163C171.641 168.89 171.111 169.948 170.382 170.213C169.653 170.477 168.857 170.146 168.128 169.816C168.46 171.271 168.128 172.924 167.267 174.114C167.731 174.379 167.797 175.172 167.532 175.767C167.267 176.296 166.803 176.627 166.339 177.09C165.146 178.28 164.484 179.999 163.887 181.653C163.49 182.711 163.092 183.769 162.761 184.827C161.833 187.406 159.712 188.133 158.585 190.646C158.453 190.91 158.784 191.968 158.983 192.762C158.784 193.159 158.519 193.556 158.254 194.018C158.188 194.018 158.122 194.085 158.055 194.085C157.194 194.415 156.2 196.201 156.133 196.201C156.133 196.201 155.868 196.862 155.868 197.523L155.736 197.457C155.736 197.193 155.736 196.862 155.736 196.597C155.736 196.399 155.736 196.135 155.736 195.936C155.736 195.539 155.802 195.209 155.802 194.812C155.868 194.217 155.868 193.688 155.935 193.093C156.001 192.233 156.133 191.373 156.2 190.448C156.2 190.183 156.266 189.919 156.266 189.72C156.399 188.464 156.597 187.141 156.862 185.885C156.929 185.488 156.995 185.091 157.061 184.694C157.061 184.628 157.061 184.562 157.128 184.496C157.26 183.703 157.393 182.909 157.591 182.115C157.724 181.586 157.79 180.991 157.923 180.462C158.055 179.933 158.122 179.338 158.254 178.809C158.585 177.156 158.983 175.503 159.447 173.85C159.447 173.783 159.447 173.717 159.513 173.651C159.646 173.122 159.778 172.593 159.911 172.13C160.11 171.403 160.309 170.675 160.507 169.948C160.772 169.088 161.037 168.163 161.236 167.303C161.501 166.443 161.766 165.584 162.032 164.724C162.363 163.666 162.694 162.542 163.092 161.484C165.676 153.813 168.857 146.34 172.502 139.265C173.032 138.207 173.629 137.149 174.159 136.091C174.159 136.025 174.225 135.958 174.225 135.958C174.557 135.297 174.954 134.636 175.352 133.975C175.352 133.975 175.352 133.908 175.418 133.908C176.876 131.329 178.467 128.817 180.123 126.37C180.852 125.312 181.581 124.188 182.377 123.196C182.575 122.931 182.774 122.667 182.907 122.402C183.437 121.741 183.901 121.014 184.431 120.352C185.955 118.435 187.546 116.517 189.203 114.731C190.859 112.88 192.582 111.161 194.372 109.507C195.299 108.714 196.227 107.92 197.155 107.127C197.619 106.73 198.083 106.399 198.547 106.003L200.005 104.945C200.469 104.614 200.999 104.217 201.463 103.886C201.993 103.556 202.457 103.225 202.987 102.961C203.981 102.366 204.975 101.704 206.102 101.241C206.565 100.977 207.096 100.778 207.56 100.514C207.626 100.514 207.626 100.448 207.692 100.448C208.222 100.183 208.752 99.9188 209.283 99.7866C210.409 99.0592 211.204 98.7947 212 98.5302Z" fill="#EBE3CC"/>
<path d="M212 98.5302C211.735 98.6624 211.47 98.8608 211.204 99.0592C210.21 99.8527 209.415 100.977 208.62 102.035C207.096 103.953 205.373 105.606 203.451 106.928C203.318 107.92 202.457 108.78 201.595 108.78C201.529 109.507 201.463 110.301 201.396 111.028C199.011 113.938 197.155 117.377 195.962 121.146C195.498 121.212 194.968 121.278 194.504 121.344C193.643 123.262 192.715 125.113 191.853 127.031C191.323 127.163 190.926 127.626 190.528 128.023C189.666 128.883 188.805 129.809 188.341 130.999C187.745 132.52 187.943 134.371 187.347 135.892C187.016 136.686 186.485 137.347 186.22 138.207C186.022 138.868 186.022 139.728 186.419 140.257C186.287 140.455 186.22 140.653 186.088 140.852C184.829 141.447 183.768 142.571 183.106 143.96C182.774 144.092 182.377 144.29 182.045 144.423C181.383 145.415 180.654 146.407 179.991 147.332C179.328 147.398 178.732 147.465 178.069 147.531C177.34 148.457 176.545 149.316 175.816 150.242C176.677 150.44 177.539 150.705 178.467 150.969C178.533 151.498 178.4 152.027 178.069 152.424C178.069 153.681 178.135 154.937 178.202 156.127C177.87 156.722 177.605 157.384 177.274 157.979C176.81 158.508 176.412 159.169 176.28 159.963C176.28 159.963 176.28 160.029 176.213 160.095C175.153 159.764 174.093 159.698 173.032 159.897C173.364 160.955 173.761 162.079 174.093 163.137C173.099 164.79 172.105 166.509 171.177 168.163C171.641 168.89 171.111 169.948 170.382 170.213C169.653 170.477 168.857 170.146 168.128 169.816C168.46 171.271 168.128 172.924 167.267 174.114C167.731 174.379 167.797 175.172 167.532 175.767C167.267 176.296 166.803 176.627 166.339 177.09C165.146 178.28 164.484 179.999 163.887 181.653C163.49 182.711 163.092 183.769 162.761 184.827C161.833 187.406 159.712 188.133 158.585 190.646C158.453 190.91 158.784 191.968 158.983 192.762C158.784 193.159 158.519 193.556 158.254 194.018C158.188 194.018 158.122 194.085 158.055 194.085C157.194 194.415 156.2 196.201 156.133 196.201C156.133 196.201 155.868 196.862 155.868 197.523L155.736 197.457C155.736 197.193 155.736 196.862 155.736 196.597C155.736 196.399 155.736 196.135 155.736 195.936C155.736 195.539 155.802 195.209 155.802 194.812C155.868 194.217 155.868 193.688 155.935 193.093C156.001 192.233 156.133 191.373 156.2 190.448C156.133 189.786 156.133 189.125 156.001 188.53C155.868 188.001 155.736 187.406 155.802 186.877C155.935 186.017 156.531 185.356 157.061 184.694C157.061 184.628 157.061 184.562 157.128 184.496C157.26 183.703 157.393 182.909 157.591 182.115C157.724 181.586 157.79 180.991 157.923 180.462C158.055 179.933 158.122 179.338 158.254 178.809C158.055 177.949 157.724 177.09 157.194 176.362C157.79 175.37 158.519 174.511 159.381 173.85C159.381 173.783 159.381 173.717 159.447 173.651C159.58 173.122 159.712 172.593 159.845 172.13C160.043 171.403 160.242 170.675 160.441 169.948C160.043 168.096 160.64 165.914 161.965 164.724C162.297 163.666 162.628 162.542 163.026 161.484C162.893 161.153 162.893 160.756 162.959 160.426C163.092 158.376 163.755 156.326 164.815 154.673C165.279 153.879 165.875 153.218 166.207 152.358C167.002 150.506 166.737 148.126 167.863 146.473C168.327 145.811 168.99 145.349 169.321 144.621C169.918 143.299 169.454 141.381 170.514 140.521C170.846 140.257 171.177 140.191 171.442 139.86C171.906 139.199 171.376 138.273 171.575 137.479C171.84 136.421 173.165 136.355 174.093 136.025C174.093 135.958 174.159 135.892 174.159 135.892C174.49 135.231 174.888 134.57 175.286 133.908C175.286 133.908 175.286 133.842 175.352 133.842V133.776C175.418 132.321 176.479 131.263 177.274 130.139C178.069 129.015 178.732 127.362 178.003 126.238C178.533 126.568 179.129 125.907 179.328 125.246C179.593 124.584 179.726 123.857 180.256 123.526C180.654 123.262 181.118 123.394 181.581 123.328C181.846 123.262 182.045 123.196 182.244 122.997C182.443 122.733 182.642 122.468 182.774 122.204C183.106 121.41 183.106 120.352 182.575 119.691C183.835 119.36 184.696 117.839 184.497 116.385C185.359 117.112 186.419 116.054 187.082 115.062C188.474 113.012 189.799 110.896 191.191 108.846C191.456 108.383 191.787 107.986 192.185 107.722C192.98 107.325 194.04 107.788 194.769 107.259C195.167 106.994 195.366 106.532 195.631 106.135C197.221 103.754 200.469 103.754 202.589 101.969C203.384 101.308 204.047 100.448 204.909 99.8527C205.77 99.2576 206.897 99.0592 207.692 99.7866C207.626 99.9188 207.56 100.051 207.493 100.249C207.56 100.249 207.56 100.183 207.626 100.183C208.156 99.9188 208.686 99.6543 209.216 99.5221C210.409 99.0592 211.204 98.7947 212 98.5302Z" fill="#EBE3CC"/>
<path d="M178.931 0.396731C175.087 1.91767 171.774 5.22405 168.858 8.66269C158.983 20.3011 151.627 34.5847 141.223 45.628C140.295 51.9763 136.584 57.7955 131.614 60.5729C129.095 61.697 126.312 61.8954 123.661 61.1019C124.788 62.6228 125.848 64.2099 126.975 65.7308C124.92 66.326 124.854 69.6324 124.854 72.0791C124.788 81.2047 118.823 88.611 113.986 95.8189C108.816 103.49 104.575 111.888 100.334 120.286C99.2735 122.402 98.2132 124.452 97.1528 126.568C94.3694 132.123 90.592 138.339 85.0253 138.604C83.6336 138.67 82.1756 138.339 80.9165 138.934C79.6573 139.529 78.7958 141.645 79.7899 142.77C83.0372 141.579 85.8868 145.811 86.7483 149.647C87.6098 153.085 86.8146 158.243 83.6999 158.243C83.5673 159.698 83.4348 161.153 83.3022 162.542C79.2597 166.509 75.2172 170.543 71.1747 174.511C71.9699 177.288 71.8374 180.396 70.8433 183.107C69.054 185.091 65.873 185.025 64.15 182.909C64.0837 185.223 64.0837 187.472 64.0175 189.786C63.0234 189.919 62.1619 190.448 61.4329 191.175C62.1619 192.233 62.9571 193.291 63.6861 194.349C61.6317 198.846 59.511 203.409 57.4567 207.905C55.8662 211.344 54.2757 214.783 52.3538 217.957C51.3598 219.544 49.8355 220.8 48.1788 219.94C48.1788 222.387 48.1788 225.032 48.8415 227.215C48.5101 227.81 48.1125 228.339 47.7811 228.934L46.9196 228.603C47.0522 223.115 47.5823 217.692 48.245 212.336C48.1788 210.815 48.0462 209.294 47.7149 207.839C47.4498 206.583 47.1184 205.26 47.3172 203.938C47.5823 202.02 48.9077 200.631 50.0343 199.11C49.1728 198.581 48.1788 198.251 47.251 198.184C49.3054 194.217 50.697 189.786 51.2935 185.157C51.426 184.099 51.4923 183.041 51.8899 182.049C51.4923 181.19 51.0284 180.33 50.4982 179.536C51.8236 177.354 53.4141 175.437 55.2697 173.916C55.4023 171.535 54.8058 169.154 53.4804 167.303C54.4745 167.038 55.4685 166.708 56.4626 166.443C56.5951 165.187 57.1253 164.063 57.7217 163.005C57.3904 159.566 58.517 155.863 60.6377 153.416C60.7702 150.837 60.3726 148.192 59.5111 145.811C62.2282 145.745 63.6198 141.778 63.3548 138.67C63.0897 135.495 61.8968 132.387 62.4932 129.279C64.4814 129.742 66.7346 128.288 67.4635 126.105C67.7949 125.047 67.8612 123.791 68.1262 122.667C68.8552 119.757 70.9759 117.839 73.2291 115.988C73.6267 113.938 74.1569 112.02 75.2835 110.367C76.3438 108.912 77.8018 107.788 78.597 106.135C79.9887 103.159 78.8621 98.6624 81.3141 96.7447C81.5792 96.5463 81.8443 96.3479 82.1756 96.2157C82.2419 96.1496 82.3082 96.0173 82.3082 95.9512C82.7058 95.0915 82.7721 94.0335 82.9709 93.0415C83.1034 92.3141 83.3685 91.5867 83.6999 90.9916C83.6999 90.5287 83.6999 90.0658 83.8324 89.669C84.4951 87.2223 87.411 87.1562 89.6642 86.4288C88.4051 84.5111 87.2785 82.3289 87.411 80.0144C87.6098 77.4354 90.4595 75.2532 92.1162 76.9725C95.2972 74.7242 97.1528 70.2936 96.7552 65.9953C97.683 66.1276 98.6108 65.797 99.3397 65.2679C99.2072 64.7389 99.0084 64.276 98.7433 63.8131C99.8699 64.4744 101.063 63.2841 101.725 61.9616C102.123 60.639 102.189 59.1842 101.659 57.9278C102.388 58.06 103.117 58.06 103.846 57.8616C103.912 57.7955 103.979 57.7294 104.111 57.6633C104.376 57.4649 104.708 57.3988 105.039 57.3326C106.099 56.7375 106.961 55.8117 107.491 54.5553C108.286 54.6875 109.082 54.7536 109.943 54.8859C110.009 54.8198 110.009 54.7536 110.076 54.6875C110.142 54.6214 110.142 54.5553 110.208 54.423C110.009 53.4311 109.811 52.4392 109.612 51.4473C109.015 48.6699 108.485 45.5619 109.612 43.0491C110.805 40.4039 113.323 39.0814 115.51 37.4943C121.275 33.1299 124.655 25.7236 129.559 20.1689C131.812 17.5899 134.397 15.3416 137.247 13.6223C139.168 12.432 141.289 11.5062 143.41 11.7046C144.47 11.8368 145.398 12.2336 146.259 12.8949C149.573 11.44 153.218 10.4481 156.067 8.13367C157.923 6.61273 159.447 4.56277 161.369 3.17409C163.291 1.78541 166.008 1.32252 167.731 3.10796C167.599 3.4386 167.4 3.76924 167.201 4.16601C167.267 4.09988 167.4 4.09988 167.466 4.03375C168.725 3.50473 169.918 2.84345 171.177 2.44669C173.695 1.5209 176.214 0.661242 178.798 -0.0661621L178.931 0.396731Z" fill="#EBE3CC"/>
<g clip-path="url(#clip1_1_798)">
<path d="M183.552 -5.75024C183.154 -5.55186 182.756 -5.28735 182.359 -4.95671C180.768 -3.76641 179.642 -1.98097 178.316 -0.393905C175.997 2.58184 173.28 5.16082 170.297 7.21077C170.099 8.79784 168.773 10.0543 167.381 10.0543C167.315 11.2446 167.183 12.3687 167.116 13.559C163.405 18.0557 160.489 23.4782 158.7 29.2974C157.971 29.3635 157.176 29.4958 156.447 29.628C155.055 32.6038 153.73 35.5134 152.338 38.4891C151.543 38.6875 150.88 39.3488 150.217 40.0101C148.892 41.3988 147.567 42.7874 146.838 44.639C145.91 47.0196 146.175 49.8631 145.247 52.2437C144.717 53.5001 143.922 54.5582 143.524 55.8146C143.193 56.8726 143.259 58.1291 143.855 58.9887C143.723 59.3194 143.524 59.5839 143.391 59.9145C141.47 60.9064 139.813 62.5596 138.753 64.7418C138.222 65.0063 137.626 65.2708 137.096 65.4692C136.035 66.9902 134.975 68.5111 133.915 70.032C132.921 70.0982 131.927 70.2304 130.933 70.2965C129.74 71.6852 128.613 73.0739 127.42 74.5287C128.812 74.8593 130.137 75.2561 131.529 75.6529C131.662 76.4464 131.396 77.3061 130.866 77.9012C130.933 79.8189 130.999 81.7366 131.065 83.6543C130.601 84.5801 130.071 85.572 129.607 86.4978L128.746 88.2171C128.547 88.68 128.282 89.1429 128.083 89.5397C128.083 89.6058 128.017 89.6719 128.017 89.6719C126.36 89.1429 124.703 89.0768 123.046 89.4074C123.577 91.1267 124.173 92.7799 124.703 94.4993C123.179 97.0782 121.655 99.7233 120.13 102.302C120.859 103.426 119.998 105.08 118.871 105.476C117.745 105.873 116.552 105.344 115.425 104.881C115.955 107.196 115.425 109.775 114.1 111.56C114.895 111.957 114.961 113.28 114.564 114.139C114.166 114.999 113.371 115.528 112.774 116.123C110.919 117.975 109.925 120.686 108.931 123.265C108.334 124.918 107.738 126.571 107.141 128.224C105.683 132.258 102.37 133.382 100.647 137.284C100.448 137.747 100.978 139.4 101.243 140.656C100.912 141.318 100.514 141.913 100.183 142.574C100.05 142.64 99.9842 142.64 99.8516 142.706C98.4599 143.235 96.9357 146.013 96.8694 146.013C96.8694 146.013 96.5381 147.071 96.4718 147.997L96.2067 147.93C96.2067 147.005 96.273 146.079 96.3393 145.153C96.3393 144.822 96.4055 144.492 96.4055 144.161C96.5381 142.177 96.7369 140.127 97.002 138.144C97.0682 137.747 97.0682 137.35 97.1345 137.019C97.2008 136.623 97.2671 136.226 97.2671 135.895C97.5321 133.911 97.8635 131.928 98.1286 129.944C98.2611 129.282 98.3274 128.687 98.4599 128.092C98.6587 126.77 98.9238 125.381 99.1889 124.058C99.3214 123.199 99.5203 122.339 99.7191 121.479C99.8516 120.686 100.05 119.892 100.249 119.099C100.249 119.033 100.249 118.966 100.316 118.9C100.846 116.321 101.508 113.742 102.105 111.163C102.171 111.031 102.171 110.833 102.237 110.634C102.37 109.973 102.569 109.378 102.768 108.717C102.9 108.254 103.033 107.791 103.099 107.328C103.298 106.534 103.563 105.741 103.762 104.947C104.159 103.559 104.557 102.236 104.954 100.848C105.352 99.525 105.75 98.2024 106.214 96.8137C106.479 95.9541 106.744 95.1605 107.009 94.3009C107.274 93.4412 107.539 92.6477 107.87 91.788C111.913 79.885 116.817 68.2466 122.582 57.2033C123.444 55.5501 124.306 53.8969 125.167 52.3098C125.233 52.1776 125.3 52.0453 125.366 51.9792C125.697 51.3179 126.095 50.6566 126.426 50.0615L127.089 48.9373C129.408 44.9035 131.86 41.002 134.379 37.1666C135.505 35.4473 136.698 33.7941 137.891 32.1409C138.156 31.7441 138.487 31.3474 138.753 30.9506C139.548 29.8926 140.343 28.8345 141.138 27.7765C143.524 24.7346 145.976 21.7589 148.561 18.9815C151.079 16.138 153.862 13.4929 156.646 10.9139C158.037 9.6575 159.495 8.4672 160.953 7.21077C161.682 6.61562 162.411 6.02048 163.14 5.49146L165.393 3.83826C166.189 3.30924 166.918 2.71409 167.713 2.2512C168.508 1.78831 169.303 1.25929 170.099 0.796392C171.689 -0.129395 173.213 -1.12131 174.936 -1.91484C175.665 -2.31161 176.461 -2.64224 177.19 -3.03901C177.256 -3.03901 177.322 -3.10514 177.388 -3.10514C178.184 -3.5019 179.045 -3.89867 179.907 -4.16318C181.033 -4.89059 182.292 -5.35348 183.552 -5.75024Z" fill="#189CAB"/>
<path d="M183.552 -5.75024C183.154 -5.55186 182.756 -5.28735 182.359 -4.95671C180.768 -3.76641 179.642 -1.98097 178.316 -0.393905C175.997 2.58184 173.28 5.16082 170.297 7.21077C170.099 8.79784 168.773 10.0543 167.381 10.0543C167.315 11.2446 167.183 12.3687 167.116 13.559C163.405 18.0557 160.489 23.4782 158.7 29.2974C157.971 29.3635 157.176 29.4958 156.447 29.628C155.055 32.6038 153.73 35.5134 152.338 38.4891C151.543 38.6875 150.88 39.3488 150.217 40.0101C148.892 41.3988 147.567 42.7874 146.838 44.639C145.91 47.0196 146.175 49.8631 145.247 52.2437C144.717 53.5001 143.922 54.5582 143.524 55.8146C143.193 56.8726 143.259 58.1291 143.855 58.9887C143.723 59.3194 143.524 59.5839 143.391 59.9145C141.47 60.9064 139.813 62.5596 138.753 64.7418C138.222 65.0063 137.626 65.2708 137.096 65.4692C136.035 66.9902 134.975 68.5111 133.915 70.032C132.921 70.0982 131.927 70.2304 130.933 70.2965C129.74 71.6852 128.613 73.0739 127.42 74.5287C128.812 74.8593 130.137 75.2561 131.529 75.6529C131.662 76.4464 131.396 77.3061 130.866 77.9012C130.933 79.8189 130.999 81.7366 131.065 83.6543C130.601 84.5801 130.071 85.572 129.607 86.4978L128.746 88.2171C128.547 88.68 128.282 89.1429 128.083 89.5397C128.083 89.6058 128.017 89.6719 128.017 89.6719C126.36 89.1429 124.703 89.0768 123.046 89.4074C123.577 91.1267 124.173 92.7799 124.703 94.4993C123.179 97.0782 121.655 99.7233 120.13 102.302C120.859 103.426 119.998 105.08 118.871 105.476C117.745 105.873 116.552 105.344 115.425 104.881C115.955 107.196 115.425 109.775 114.1 111.56C114.895 111.957 114.961 113.28 114.564 114.139C114.166 114.999 113.371 115.528 112.774 116.123C110.919 117.975 109.925 120.686 108.931 123.265C108.334 124.918 107.738 126.571 107.141 128.224C105.683 132.258 102.37 133.382 100.647 137.284C100.448 137.747 100.978 139.4 101.243 140.656C100.912 141.318 100.514 141.913 100.183 142.574C100.05 142.64 99.9842 142.64 99.8516 142.706C98.4599 143.235 96.9357 146.013 96.8694 146.013C96.8694 146.013 96.5381 147.071 96.4718 147.997L96.2067 147.93C96.2067 147.005 96.273 146.079 96.3393 145.153C96.3393 144.822 96.4055 144.492 96.4055 144.161C96.5381 142.177 96.7369 140.127 97.002 138.144C97.0682 137.747 97.0682 137.35 97.1345 137.019C97.0682 136.027 97.002 135.035 96.8032 134.044C96.6044 133.184 96.4055 132.324 96.5381 131.398C96.7369 130.076 97.6647 129.084 98.4599 128.026C98.725 126.703 98.9238 125.315 99.1889 123.992C99.3214 123.133 99.5203 122.273 99.7191 121.413C99.8516 120.62 100.05 119.826 100.249 119.033C100.249 118.966 100.249 118.9 100.316 118.834C100.05 117.446 99.454 116.189 98.725 115.065C99.6528 113.544 100.846 112.155 102.171 111.097C102.237 110.965 102.237 110.767 102.304 110.568C102.436 109.907 102.635 109.312 102.834 108.651C102.966 108.188 103.099 107.725 103.165 107.262C103.364 106.468 103.629 105.675 103.828 104.881C103.165 101.972 104.159 98.5992 106.214 96.8137C106.479 95.9541 106.744 95.1605 107.009 94.3009C107.274 93.4412 107.539 92.6477 107.87 91.788C107.738 91.259 107.738 90.6639 107.738 90.1348C108.003 86.8946 108.997 83.7866 110.654 81.1415C111.383 79.9512 112.311 78.8931 112.841 77.5706C114.1 74.661 113.702 70.9578 115.492 68.445C116.22 67.453 117.215 66.7256 117.678 65.6015C118.606 63.5515 117.877 60.5758 119.468 59.2532C119.932 58.8565 120.528 58.7242 120.926 58.1952C121.588 57.2033 120.859 55.6823 121.191 54.492C121.655 52.8388 123.643 52.7727 125.167 52.3098C125.233 52.1776 125.3 52.0453 125.366 51.9792C125.697 51.3179 126.095 50.6566 126.426 50.0615L127.089 48.9373V48.8712C127.221 46.6228 128.878 44.9035 130.137 43.2503C131.396 41.531 132.391 38.952 131.264 37.1005C132.059 37.5634 132.987 36.5714 133.385 35.5795C133.782 34.5876 134.047 33.3973 134.843 32.9344C135.505 32.5377 136.234 32.736 136.963 32.6038C137.361 32.5377 137.692 32.3393 137.957 32.1409C138.222 31.7441 138.554 31.3474 138.819 30.9506C139.415 29.6942 139.415 28.041 138.487 27.0491C140.409 26.52 141.801 24.1394 141.47 21.8911C142.795 23.0153 144.518 21.3621 145.446 19.8412C147.567 16.6009 149.687 13.4268 151.808 10.1865C152.272 9.52524 152.736 8.79784 153.398 8.4672C154.657 7.80592 156.248 8.59945 157.441 7.80592C158.037 7.40916 158.369 6.68175 158.766 6.02048C161.285 2.2512 166.255 2.31733 169.635 -0.393905C170.894 -1.38582 171.888 -2.84063 173.213 -3.70029C174.539 -4.62607 176.328 -4.95671 177.521 -3.76641C177.388 -3.5019 177.322 -3.30352 177.19 -3.10514C177.256 -3.10514 177.322 -3.17127 177.388 -3.17127C178.184 -3.56803 179.045 -3.9648 179.907 -4.22931C181.033 -4.89059 182.292 -5.35348 183.552 -5.75024Z" fill="#189CAB"/>
<path d="M131.197 7.01233C130.932 7.14458 130.667 7.34297 130.402 7.54135C129.408 8.33488 128.613 9.45905 127.817 10.451C126.293 12.3687 124.57 14.0219 122.648 15.3444C122.516 16.3363 121.654 17.196 120.793 17.196C120.726 17.9234 120.66 18.6508 120.594 19.4443C118.208 22.3539 116.353 25.7926 115.16 29.5619C114.696 29.628 114.166 29.6941 113.702 29.7602C112.84 31.6779 111.912 33.5295 111.051 35.4472C110.521 35.5795 110.123 35.9762 109.726 36.4391C108.864 37.2988 108.003 38.2246 107.539 39.4149C106.942 40.9358 107.141 42.7874 106.545 44.3083C106.213 45.1018 105.683 45.7631 105.418 46.6228C105.219 47.2841 105.219 48.1437 105.617 48.6727C105.484 48.8711 105.418 49.0695 105.285 49.2679C104.026 49.863 102.966 50.9872 102.303 52.3759C101.972 52.5081 101.574 52.7065 101.243 52.8388C100.58 53.8307 99.8512 54.8226 99.1885 55.7484C98.5258 55.8145 97.9294 55.8807 97.2667 55.9468C96.5377 56.8726 95.7424 57.7322 95.0134 58.658C95.875 58.9225 96.8028 59.1209 97.6643 59.3854C97.7305 59.9144 97.598 60.4435 97.2667 60.8402L97.3992 64.5434C97.0678 65.1385 96.7365 65.7337 96.4714 66.395C96.0075 66.924 95.6099 67.5853 95.4773 68.3788C95.4773 68.3788 95.4773 68.4449 95.4111 68.511C94.3507 68.1804 93.2904 68.1143 92.2301 68.3126C92.5614 69.4368 92.9591 70.4949 93.2904 71.5529C92.2964 73.2061 91.3023 74.9254 90.3745 76.5786C90.8384 77.306 90.3082 78.3641 89.5793 78.6286C88.8503 78.8931 88.055 78.5624 87.326 78.2318C87.6574 79.6866 87.326 81.3398 86.4645 82.5301C86.9947 82.7946 86.9947 83.6543 86.7296 84.1833C86.4645 84.7123 86.0006 85.0429 85.5367 85.5058C84.3439 86.6961 83.6812 88.4155 83.0847 90.0686C82.6871 91.1267 82.2895 92.1847 81.9581 93.2428C81.0303 95.8217 78.9097 96.5491 77.7831 99.062C77.6505 99.3265 77.9819 100.385 78.1807 101.178C77.9156 101.575 77.7168 101.972 77.4517 102.435C77.3854 102.435 77.3192 102.501 77.2529 102.501C76.3914 102.831 75.3973 104.617 75.331 104.617C75.331 104.617 75.1322 105.278 75.066 105.939L74.9997 105.807C74.9997 105.146 75.066 104.484 75.066 103.823C75.066 103.493 75.1322 103.162 75.1322 102.831C75.1322 102.501 75.1985 102.104 75.1985 101.773C75.1985 101.443 75.2648 101.178 75.2648 100.847C75.2648 100.649 75.331 100.451 75.331 100.252C75.331 99.9878 75.3973 99.7894 75.3973 99.5249C75.3973 99.2604 75.4636 98.9297 75.5299 98.6652C75.5299 98.4007 75.5961 98.1362 75.5961 97.9378C75.7287 96.6153 75.9275 95.3589 76.1926 94.1024C76.2588 93.7057 76.3251 93.3089 76.3914 92.9121C76.5239 92.0525 76.7227 91.1928 76.8553 90.3332C77.0541 89.209 77.3192 88.0848 77.518 87.0268C77.8493 85.3736 78.247 83.7204 78.7109 82.0672C78.8434 81.4059 79.0422 80.7446 79.241 80.0834C79.4398 79.4221 79.5724 78.7608 79.7712 78.0995C80.0363 77.2399 80.3014 76.3802 80.5002 75.4544C80.7652 74.5948 81.0303 73.7351 81.2954 72.8755C81.6268 71.8174 81.9581 70.6932 82.3557 69.6352C84.9403 61.9644 88.1213 54.5581 91.7662 47.4163C92.2963 46.3583 92.8928 45.3002 93.423 44.2422C93.4892 44.1761 93.5555 44.0438 93.5555 43.9777C93.8206 43.5148 94.0194 43.118 94.2845 42.6551C94.417 42.4567 94.4833 42.2584 94.6158 42.06C96.0738 39.481 97.6643 36.9682 99.321 34.5214C100.05 33.3973 100.779 32.3392 101.574 31.2812C101.773 31.0167 101.972 30.7522 102.104 30.4876C102.635 29.8264 103.098 29.099 103.629 28.4377C105.153 26.52 106.743 24.6023 108.4 22.7507C110.057 20.8991 111.78 19.2459 113.569 17.5266C114.497 16.7331 115.425 15.9396 116.353 15.146C116.817 14.7493 117.28 14.4186 117.811 14.0219L119.269 12.9638C119.799 12.6332 120.263 12.2364 120.726 11.9058C121.257 11.5751 121.721 11.2445 122.251 10.98C123.245 10.3848 124.239 9.72356 125.365 9.26067C125.829 8.99616 126.359 8.79777 126.823 8.53326C126.89 8.53326 126.89 8.46714 126.956 8.46714C127.486 8.20263 128.016 7.93812 128.546 7.80586C129.54 7.60748 130.402 7.27684 131.197 7.01233Z" fill="#189CAB"/>
<path d="M131.197 7.01233C130.932 7.14458 130.667 7.34297 130.402 7.54135C129.408 8.33488 128.613 9.45905 127.817 10.451C126.293 12.3687 124.57 14.0219 122.648 15.3444C122.516 16.3363 121.654 17.196 120.793 17.196C120.726 17.9234 120.66 18.6508 120.594 19.4443C118.208 22.3539 116.353 25.7926 115.16 29.5619C114.696 29.628 114.166 29.6941 113.702 29.7602C112.84 31.6779 111.912 33.5295 111.051 35.4472C110.521 35.5795 110.123 35.9762 109.726 36.4391C108.864 37.2988 108.003 38.2246 107.539 39.4149C106.942 40.9358 107.141 42.7874 106.545 44.3083C106.213 45.1018 105.683 45.7631 105.418 46.6228C105.219 47.2841 105.219 48.1437 105.617 48.6727C105.484 48.8711 105.418 49.0695 105.285 49.2679C104.026 49.863 102.966 50.9872 102.303 52.3759C101.972 52.5081 101.574 52.7065 101.243 52.8388C100.58 53.8307 99.8512 54.8226 99.1885 55.7484C98.5258 55.8145 97.9294 55.8807 97.2667 55.9468C96.5377 56.8726 95.7424 57.7322 95.0134 58.658C95.875 58.9225 96.8028 59.1209 97.6643 59.3854C97.7305 59.9144 97.598 60.4435 97.2667 60.8402L97.3992 64.5434C97.0678 65.1385 96.7365 65.7337 96.4714 66.395C96.0075 66.924 95.6099 67.5853 95.4773 68.3788C95.4773 68.3788 95.4773 68.4449 95.4111 68.511C94.3507 68.1804 93.2904 68.1143 92.2301 68.3126C92.5614 69.4368 92.9591 70.4949 93.2904 71.5529C92.2964 73.2061 91.3023 74.9254 90.3745 76.5786C90.8384 77.306 90.3082 78.3641 89.5793 78.6286C88.8503 78.8931 88.055 78.5624 87.326 78.2318C87.6574 79.6866 87.326 81.3398 86.4645 82.5301C86.9947 82.7946 86.9947 83.6543 86.7296 84.1833C86.4645 84.7123 86.0006 85.0429 85.5367 85.5058C84.3439 86.6961 83.6812 88.4155 83.0847 90.0686C82.6871 91.1267 82.2895 92.1847 81.9581 93.2428C81.0303 95.8217 78.9097 96.5491 77.7831 99.062C77.6505 99.3265 77.9819 100.385 78.1807 101.178C77.9156 101.575 77.7168 101.972 77.4517 102.435C77.3854 102.435 77.3192 102.501 77.2529 102.501C76.3914 102.831 75.3973 104.617 75.331 104.617C75.331 104.617 75.1322 105.278 75.066 105.939L74.9997 105.807C74.9997 105.146 75.066 104.484 75.066 103.823C75.066 103.493 75.1322 103.162 75.1322 102.831C75.1322 102.501 75.1985 102.104 75.1985 101.773C75.1985 101.443 75.2648 101.178 75.2648 100.847C75.2648 100.649 75.331 100.451 75.331 100.252C75.331 99.9878 75.3973 99.7894 75.3973 99.5249C75.3973 99.2604 75.4636 98.9297 75.5299 98.6652C75.4636 98.004 75.3973 97.3427 75.331 96.7475C75.1985 96.2185 75.066 95.6234 75.1985 95.0943C75.331 94.2347 75.9275 93.5734 76.4577 92.9121C76.5902 92.0525 76.789 91.1928 76.9215 90.3332C77.1204 89.209 77.3854 88.0848 77.5843 87.0268C77.3854 86.1671 77.0541 85.3075 76.5239 84.5801C77.1204 83.5881 77.8493 82.7285 78.7109 82.0672C78.8434 81.4059 79.0422 80.7446 79.241 80.0834C79.4398 79.4221 79.5724 78.7608 79.7712 78.0995C79.3736 76.248 79.97 74.0658 81.2954 72.8755C81.6268 71.8174 81.9581 70.6932 82.3557 69.6352C82.2232 69.3046 82.2895 68.9078 82.2895 68.5772C82.422 66.5272 83.0847 64.4772 84.1451 62.8241C84.6089 62.0305 85.2054 61.3692 85.5367 60.5096C86.332 58.658 86.0669 56.2774 87.1935 54.6242C87.6574 53.963 88.3201 53.5001 88.6515 52.7727C89.2479 51.4501 88.784 49.5324 89.8443 48.6727C90.1757 48.4082 90.507 48.3421 90.7721 48.0115C91.236 47.3502 90.7059 46.3583 90.9047 45.6309C91.236 44.5728 92.4952 44.5728 93.423 44.2422C93.4892 44.1761 93.5555 44.0438 93.5555 43.9777C93.8206 43.5148 94.0194 43.118 94.2845 42.6551C94.417 42.4567 94.4833 42.2584 94.6158 42.06C94.6158 42.06 94.6158 42.06 94.6158 41.9939C94.6821 40.539 95.7424 39.481 96.5377 38.3568C97.3329 37.2327 97.9956 35.5795 97.2667 34.3892C97.7968 34.7198 98.3933 34.0585 98.5921 33.3973C98.7909 32.736 98.9897 32.0086 99.5199 31.6779C99.9175 31.4134 100.381 31.5457 100.845 31.4796C101.11 31.4134 101.309 31.3473 101.508 31.1489C101.707 30.8844 101.906 30.6199 102.038 30.3554C102.436 29.5619 102.436 28.5038 101.839 27.8425C103.098 27.5119 103.96 25.991 103.761 24.5362C104.623 25.2636 105.683 24.2055 106.346 23.2136C107.737 21.1636 109.063 19.0476 110.455 16.9976C110.72 16.5347 111.051 16.1379 111.449 15.8734C112.244 15.4767 113.304 15.9396 114.033 15.4767C114.431 15.2122 114.63 14.7493 114.895 14.3525C116.551 11.9058 119.732 11.9719 121.853 10.1865C122.648 9.52518 123.311 8.66552 124.173 8.07037C125.034 7.47522 126.161 7.27684 126.89 8.00424C126.823 8.1365 126.757 8.33488 126.691 8.46714C126.757 8.46714 126.757 8.40101 126.823 8.40101C127.354 8.1365 127.884 7.87199 128.414 7.73973C129.54 7.60748 130.402 7.27684 131.197 7.01233Z" fill="#189CAB"/>
<path d="M253.931 -15.6033C250.087 -14.0823 246.774 -10.776 243.858 -7.33731C233.983 4.30115 226.627 18.5847 216.223 29.628C215.295 35.9763 211.584 41.7955 206.614 44.5729C204.095 45.697 201.312 45.8954 198.661 45.1019C199.788 46.6228 200.848 48.2099 201.975 49.7308C199.92 50.326 199.854 53.6324 199.854 56.0791C199.788 65.2047 193.823 72.611 188.986 79.8189C183.816 87.4897 179.575 95.8879 175.334 104.286C174.273 106.402 173.213 108.452 172.153 110.568C169.369 116.123 165.592 122.339 160.025 122.604C158.634 122.67 157.176 122.339 155.916 122.934C154.657 123.529 153.796 125.645 154.79 126.77C158.037 125.579 160.887 129.811 161.748 133.647C162.61 137.085 161.815 142.243 158.7 142.243C158.567 143.698 158.435 145.153 158.302 146.542C154.26 150.509 150.217 154.543 146.175 158.511C146.97 161.288 146.837 164.396 145.843 167.107C144.054 169.091 140.873 169.025 139.15 166.909C139.084 169.223 139.084 171.472 139.017 173.786C138.023 173.919 137.162 174.448 136.433 175.175C137.162 176.233 137.957 177.291 138.686 178.349C136.632 182.846 134.511 187.409 132.457 191.905C130.866 195.344 129.276 198.783 127.354 201.957C126.36 203.544 124.836 204.8 123.179 203.94C123.179 206.387 123.179 209.032 123.841 211.215C123.51 211.81 123.112 212.339 122.781 212.934L121.92 212.603C122.052 207.115 122.582 201.692 123.245 196.336C123.179 194.815 123.046 193.294 122.715 191.839C122.45 190.583 122.118 189.26 122.317 187.938C122.582 186.02 123.908 184.631 125.034 183.11C124.173 182.581 123.179 182.251 122.251 182.184C124.305 178.217 125.697 173.786 126.293 169.157C126.426 168.099 126.492 167.041 126.89 166.049C126.492 165.19 126.028 164.33 125.498 163.536C126.824 161.354 128.414 159.437 130.27 157.916C130.402 155.535 129.806 153.154 128.48 151.303C129.474 151.038 130.469 150.708 131.463 150.443C131.595 149.187 132.125 148.063 132.722 147.005C132.39 143.566 133.517 139.863 135.638 137.416C135.77 134.837 135.373 132.192 134.511 129.811C137.228 129.745 138.62 125.778 138.355 122.67C138.09 119.495 136.897 116.387 137.493 113.279C139.481 113.742 141.735 112.288 142.464 110.105C142.795 109.047 142.861 107.791 143.126 106.667C143.855 103.757 145.976 101.839 148.229 99.9878C148.627 97.9379 149.157 96.0202 150.283 94.367C151.344 92.9122 152.802 91.788 153.597 90.1348C154.989 87.1591 153.862 82.6624 156.314 80.7447C156.579 80.5463 156.844 80.3479 157.176 80.2157C157.242 80.1496 157.308 80.0173 157.308 79.9512C157.706 79.0915 157.772 78.0335 157.971 77.0415C158.103 76.3141 158.369 75.5867 158.7 74.9916C158.7 74.5287 158.7 74.0658 158.832 73.669C159.495 71.2223 162.411 71.1562 164.664 70.4288C163.405 68.5111 162.278 66.3289 162.411 64.0144C162.61 61.4354 165.459 59.2532 167.116 60.9725C170.297 58.7242 172.153 54.2936 171.755 49.9953C172.683 50.1276 173.611 49.797 174.34 49.2679C174.207 48.7389 174.008 48.276 173.743 47.8131C174.87 48.4744 176.063 47.2841 176.725 45.9616C177.123 44.639 177.189 43.1842 176.659 41.9278C177.388 42.06 178.117 42.06 178.846 41.8616C178.912 41.7955 178.979 41.7294 179.111 41.6633C179.376 41.4649 179.708 41.3988 180.039 41.3326C181.099 40.7375 181.961 39.8117 182.491 38.5553C183.286 38.6875 184.082 38.7536 184.943 38.8859C185.009 38.8198 185.009 38.7536 185.076 38.6875C185.142 38.6214 185.142 38.5553 185.208 38.423C185.009 37.4311 184.811 36.4392 184.612 35.4473C184.015 32.6699 183.485 29.5619 184.612 27.0491C185.805 24.4039 188.323 23.0814 190.51 21.4943C196.275 17.1299 199.655 9.72362 204.559 4.16889C206.812 1.58992 209.397 -0.658422 212.247 -2.37774C214.168 -3.56804 216.289 -4.49382 218.41 -4.29544C219.47 -4.16319 220.398 -3.76642 221.259 -3.10515C224.573 -4.55995 228.218 -5.55187 231.067 -7.86633C232.923 -9.38727 234.447 -11.4372 236.369 -12.8259C238.291 -14.2146 241.008 -14.6775 242.731 -12.892C242.599 -12.5614 242.4 -12.2308 242.201 -11.834C242.267 -11.9001 242.4 -11.9001 242.466 -11.9662C243.725 -12.4953 244.918 -13.1565 246.177 -13.5533C248.695 -14.4791 251.214 -15.3388 253.798 -16.0662L253.931 -15.6033Z" fill="#189CAB"/>
</g>
</g>
<defs>
<clipPath id="clip0_1_798">
<rect width="212" height="229" fill="white" transform="translate(-0.000305176)"/>
</clipPath>
<clipPath id="clip1_1_798">
<rect width="212" height="229" fill="white" transform="translate(74.9997 -16)"/>
</clipPath>
</defs>
</svg>
